<svg width="200" height="56" viewBox="0 0 200 56" fill="none" xmlns="http://www.w3.org/2000/svg">
<rect width="200" height="56" rx="10" fill="white"/>
<path d="M50.0454 27.9474C50.06 26.7976 50.3603 25.6702 50.9185 24.6701C51.4766 23.6701 52.2745 22.8298 53.2378 22.2276C52.6258 21.3388 51.8185 20.6074 50.8799 20.0914C49.9414 19.5754 48.8975 19.2891 47.8311 19.2552C45.5563 19.0124 43.3509 20.6394 42.1917 20.6394C41.0101 20.6394 39.2253 19.2793 37.3034 19.3195C36.0603 19.3603 34.8487 19.7279 33.7869 20.3865C32.725 21.0451 31.8489 21.9721 31.2441 23.0774C28.6242 27.6901 30.5784 34.4693 33.0881 38.1979C34.3437 40.0237 35.8112 42.0631 37.7314 41.9908C39.6104 41.9115 40.3122 40.7723 42.5803 40.7723C44.8273 40.7723 45.4857 41.9908 47.4449 41.9448C49.4611 41.9115 50.7315 40.1109 51.9431 38.2678C52.8452 36.9669 53.5394 35.5291 54 34.0076C52.8286 33.5038 51.829 32.6605 51.1257 31.5828C50.4225 30.5051 50.0468 29.2408 50.0454 27.9474Z" fill="#18181B"/>
<path d="M46.3453 16.8086C47.4446 15.4666 47.9862 13.7416 47.8551 12C46.1755 12.1794 44.6241 12.9957 43.5099 14.2863C42.9651 14.9167 42.5479 15.6502 42.282 16.4448C42.0162 17.2393 41.9069 18.0794 41.9605 18.9169C42.8006 18.9257 43.6317 18.7405 44.3912 18.3753C45.1507 18.0101 45.8188 17.4745 46.3453 16.8086Z" fill="#18181B"/>
<path d="M82.264 37H78.304L77.848 34H74.536L74.056 37H70.12L73.6 19.144H78.76L82.264 37ZM76 24.688L75.04 30.784H77.344L76.384 24.688L76.216 23.32H76.168L76 24.688ZM87.223 37H83.359V19.144H88.423C91.639 19.144 93.607 20.896 93.607 24.616V26.608C93.607 30.472 91.711 32.224 88.783 32.224H87.223V37ZM87.223 22.576V28.792H88.063C89.071 28.792 89.743 28.384 89.743 26.608V24.712C89.743 23.104 89.167 22.576 88.111 22.576H87.223ZM98.7074 37H94.8434V19.144H99.9074C103.123 19.144 105.091 20.896 105.091 24.616V26.608C105.091 30.472 103.195 32.224 100.267 32.224H98.7074V37ZM98.7074 22.576V28.792H99.5474C100.555 28.792 101.227 28.384 101.227 26.608V24.712C101.227 23.104 100.651 22.576 99.5954 22.576H98.7074ZM116.47 37.336C113.11 37.336 111.214 35.704 111.214 32.224V31.168H115.006V32.224C115.006 33.16 115.294 34.024 116.47 34.024C117.31 34.024 117.718 33.496 117.718 32.728V31.576C117.718 30.28 117.046 30.04 115.006 29.104C112.438 27.88 111.382 26.824 111.382 24.304V23.272C111.382 20.392 113.446 18.832 116.422 18.832C119.71 18.832 121.486 20.704 121.462 23.896V24.856H117.814V23.896C117.814 22.816 117.43 22.144 116.422 22.144C115.606 22.144 115.246 22.624 115.246 23.272V24.304C115.27 25.336 116.014 25.696 117.118 26.176C120.382 27.544 121.63 28.864 121.63 31.624V32.776C121.63 35.68 119.518 37.336 116.47 37.336ZM128.825 37H124.961V22.672H122.129V19.144H131.681V22.672H128.825V37ZM137.687 37.336C134.183 37.336 132.431 35.272 132.431 31.24V24.928C132.431 20.896 134.183 18.832 137.687 18.832C141.191 18.832 142.943 20.896 142.943 24.928V31.24C142.943 35.272 141.191 37.336 137.687 37.336ZM137.687 33.928C138.599 33.928 139.079 33.304 139.079 31.792V24.376C139.079 22.864 138.599 22.24 137.687 22.24C136.799 22.24 136.295 22.864 136.295 24.376V31.792C136.295 33.304 136.799 33.928 137.687 33.928ZM148.512 37H144.648V19.144H149.832C153.192 19.144 154.896 20.752 154.896 23.704V25.168C154.896 27.064 154.104 28.432 152.592 28.888V28.912C154.08 29.248 154.656 30.736 154.728 32.608L154.824 34.84C154.872 35.704 154.968 36.52 155.184 37H151.32C151.2 36.496 151.08 35.512 151.008 34.216L150.912 32.152C150.84 31.096 150.36 30.592 149.328 30.592H148.512V37ZM148.512 22.384V27.64H149.496C150.384 27.64 151.032 27.208 151.032 25.696V24.16C151.032 22.912 150.552 22.384 149.616 22.384H148.512ZM164.935 37H156.367V19.144H164.791V22.552H160.231V26.296H164.263V29.56H160.231V33.544H164.935V37Z" fill="#18181B"/>
</svg>
