<svg width="153" height="157" viewBox="0 0 153 157" fill="none" xmlns="http://www.w3.org/2000/svg">
<g clip-path="url(#clip0_1647_30142)">
<rect x="7.65039" width="129.6" height="129.6" rx="64.8" fill="white"/>
<path fill-rule="evenodd" clip-rule="evenodd" d="M99.1302 105.399L125.609 79.0192C132.621 72.0331 136.477 64.9098 137.178 57.6494C137.847 50.3586 135.27 43.8117 129.445 38.0085C125.084 33.6637 120.068 31.3998 114.396 31.2167C108.694 31.0032 103.328 32.8859 98.2971 36.8648L97.9312 36.5002C100.675 32.6729 101.802 28.2681 101.314 23.286C100.825 18.243 98.8275 13.9745 95.3204 10.4805C90.3494 5.52801 80.9459 -0.499318 74.4207 0.0465656C67.8649 0.562066 61.6602 3.73576 55.8066 9.56764L29.4652 35.8111L33.7516 40.2638L30.0354 36.5002L56.7985 63.346L-8.5324 128.434L3.17823 140.101L68.5091 75.0131L91.5644 97.9827L91.6252 97.9222L99.1302 105.399ZM67.4322 52.9451L47.5196 33.324L61.2303 20.4224C64.9498 16.7167 68.6391 14.6819 72.2981 14.3178C75.9571 13.9538 79.3114 15.291 82.361 18.3293C85.6242 21.5803 87.274 25.1129 86.6648 29.2443C86.0555 33.3757 85.0632 35.0391 80.6424 39.4434L67.4322 52.9451ZM115.134 72.7749L101.003 86.8534L78.7969 64.6012L92.2986 51.0024C102.116 41.2218 111.135 40.6336 118.332 47.804C121.9 51.3589 123.41 55.2627 122.862 59.5157C122.314 63.7686 119.738 68.1884 115.134 72.7749Z" fill="#7C60F5"/>
</g>
<g filter="url(#filter0_d_1647_30142)">
<rect x="14.875" y="114.195" width="121.5" height="28.8" rx="7.2" transform="rotate(-4.11206 14.875 114.195)" fill="#D5A000"/>
<path d="M31.8861 135.733C29.2361 135.923 27.7027 134.474 27.5106 131.803L27.4409 130.833L30.134 130.639L30.1975 131.523C30.2656 132.471 30.6092 133.334 31.7511 133.252C33.0437 133.159 33.2188 132.28 33.1119 130.793L33.0035 129.285C32.8718 127.454 32.2267 126.916 31.3219 126.981C30.5032 127.04 30.014 127.465 29.7835 128.174L29.785 128.196L27.2658 128.095L27.0295 119.688L34.2684 119.168L34.4419 121.581L29.6159 121.928L29.7115 125.667C30.1545 125.202 30.7115 124.816 31.7887 124.738C33.62 124.607 35.424 125.603 35.6765 129.115L35.7803 130.558C36.0142 133.812 34.7515 135.527 31.8861 135.733ZM37.5585 137.664L37.4686 136.414C38.395 136.347 38.5519 136.12 38.4899 135.258C37.6497 135.318 37.0986 134.881 37.032 133.955C36.9545 132.878 37.4175 132.39 38.4517 132.315C39.5289 132.238 40.0569 132.655 40.1421 133.84C40.3636 136.92 39.2898 137.647 37.5585 137.664ZM45.5333 134.751C42.3663 134.979 41.008 132.954 40.771 129.658L40.3544 123.863C40.1189 120.588 41.1736 118.39 44.3191 118.164C47.5938 117.928 48.8752 120.088 49.1014 123.234L49.518 129.029C49.755 132.326 48.6788 134.525 45.5333 134.751ZM45.3552 132.274C46.4755 132.193 46.8613 131.234 46.7405 129.554L46.2774 123.112C46.1581 121.453 45.6391 120.559 44.5188 120.64C43.3769 120.722 42.9911 121.681 43.1103 123.34L43.5735 129.782C43.6943 131.462 44.2133 132.356 45.3552 132.274Z" fill="white"/>
<mask id="mask0_1647_30142" style="mask-type:alpha" maskUnits="userSpaceOnUse" x="53" y="115" width="20" height="20">
<rect x="53.5625" y="116.828" width="18" height="18" transform="rotate(-4.11206 53.5625 116.828)" fill="#D9D9D9"/>
</mask>
<g mask="url(#mask0_1647_30142)">
<path d="M63.4676 129.105L60.4976 131.198C60.3667 131.295 60.226 131.343 60.0755 131.341C59.925 131.339 59.7905 131.299 59.672 131.22C59.5535 131.14 59.4584 131.038 59.3866 130.911C59.3149 130.785 59.2919 130.639 59.3176 130.474L59.8864 126.881L56.9665 124.703C56.8337 124.6 56.7466 124.478 56.7052 124.337C56.6637 124.195 56.6629 124.054 56.703 123.914C56.743 123.773 56.8097 123.655 56.9032 123.561C56.9966 123.467 57.1298 123.401 57.3025 123.363L60.9078 122.784L62.0711 119.355C62.1227 119.2 62.2112 119.081 62.3368 118.997C62.4623 118.913 62.5937 118.866 62.7308 118.856C62.8679 118.846 63.0047 118.874 63.141 118.939C63.2772 119.005 63.3819 119.11 63.455 119.255L65.097 122.483L68.748 122.54C68.9243 122.553 69.0655 122.599 69.1715 122.679C69.2775 122.759 69.3604 122.866 69.4201 122.999C69.4799 123.133 69.4993 123.273 69.4784 123.418C69.4576 123.564 69.3888 123.697 69.2722 123.818L66.6938 126.391L67.7708 129.867C67.8199 130.026 67.8179 130.173 67.765 130.309C67.7121 130.444 67.6327 130.56 67.5267 130.655C67.4208 130.75 67.2935 130.81 67.1447 130.833C66.996 130.856 66.8499 130.829 66.7065 130.751L63.4676 129.105Z" fill="white"/>
</g>
<mask id="mask1_1647_30142" style="mask-type:alpha" maskUnits="userSpaceOnUse" x="67" y="114" width="20" height="20">
<rect x="67.0273" y="115.859" width="18" height="18" transform="rotate(-4.11206 67.0273 115.859)" fill="#D9D9D9"/>
</mask>
<g mask="url(#mask1_1647_30142)">
<path d="M76.9324 128.136L73.9624 130.229C73.8315 130.326 73.6908 130.374 73.5403 130.372C73.3898 130.371 73.2553 130.33 73.1368 130.251C73.0183 130.172 72.9232 130.069 72.8515 129.942C72.7797 129.816 72.7567 129.67 72.7825 129.506L73.3512 125.912L70.4313 123.734C70.2986 123.631 70.2115 123.509 70.17 123.368C70.1285 123.227 70.1278 123.086 70.1678 122.945C70.2078 122.804 70.2746 122.687 70.368 122.592C70.4615 122.498 70.5946 122.432 70.7674 122.394L74.3726 121.816L75.5359 118.386C75.5875 118.232 75.6761 118.113 75.8016 118.028C75.9272 117.944 76.0585 117.897 76.1956 117.887C76.3328 117.877 76.4695 117.905 76.6058 117.971C76.7421 118.036 76.8468 118.141 76.9199 118.286L78.5618 121.514L82.2128 121.571C82.3892 121.584 82.5303 121.63 82.6364 121.71C82.7424 121.79 82.8252 121.897 82.885 122.031C82.9447 122.164 82.9641 122.304 82.9433 122.449C82.9224 122.595 82.8537 122.728 82.7371 122.85L80.1587 125.422L81.2357 128.898C81.2847 129.057 81.2828 129.205 81.2299 129.34C81.1769 129.475 81.0975 129.591 80.9916 129.686C80.8856 129.782 80.7583 129.841 80.6096 129.864C80.4609 129.887 80.3148 129.86 80.1714 129.783L76.9324 128.136Z" fill="white"/>
</g>
<mask id="mask2_1647_30142" style="mask-type:alpha" maskUnits="userSpaceOnUse" x="80" y="113" width="20" height="20">
<rect x="80.4922" y="114.891" width="18" height="18" transform="rotate(-4.11206 80.4922 114.891)" fill="#D9D9D9"/>
</mask>
<g mask="url(#mask2_1647_30142)">
<path d="M90.3973 127.167L87.4272 129.26C87.2964 129.358 87.1557 129.405 87.0052 129.404C86.8547 129.402 86.7202 129.361 86.6017 129.282C86.4832 129.203 86.3881 129.1 86.3163 128.974C86.2446 128.847 86.2216 128.702 86.2473 128.537L86.8161 124.943L83.8962 122.766C83.7634 122.662 83.6763 122.54 83.6348 122.399C83.5934 122.258 83.5926 122.117 83.6326 121.976C83.6727 121.835 83.7394 121.718 83.8329 121.623C83.9263 121.529 84.0594 121.463 84.2322 121.426L87.8375 120.847L89.0008 117.417C89.0524 117.263 89.1409 117.144 89.2665 117.06C89.392 116.975 89.5233 116.928 89.6605 116.918C89.7976 116.909 89.9343 116.936 90.0706 117.002C90.2069 117.067 90.3116 117.172 90.3847 117.318L92.0267 120.546L95.6777 120.603C95.854 120.615 95.9952 120.661 96.1012 120.741C96.2072 120.822 96.2901 120.928 96.3498 121.062C96.4096 121.196 96.429 121.335 96.4081 121.481C96.3873 121.626 96.3185 121.76 96.2019 121.881L93.6235 124.454L94.7005 127.929C94.7496 128.089 94.7476 128.236 94.6947 128.371C94.6418 128.507 94.5623 128.622 94.4564 128.717C94.3505 128.813 94.2231 128.872 94.0744 128.895C93.9257 128.919 93.7796 128.891 93.6362 128.814L90.3973 127.167Z" fill="white"/>
</g>
<mask id="mask3_1647_30142" style="mask-type:alpha" maskUnits="userSpaceOnUse" x="93" y="112" width="21" height="20">
<rect x="93.959" y="113.926" width="18" height="18" transform="rotate(-4.11206 93.959 113.926)" fill="#D9D9D9"/>
</mask>
<g mask="url(#mask3_1647_30142)">
<path d="M103.864 126.202L100.894 128.296C100.763 128.393 100.622 128.44 100.472 128.439C100.321 128.437 100.187 128.396 100.068 128.317C99.95 128.238 99.8549 128.135 99.7831 128.009C99.7114 127.882 99.6884 127.737 99.7141 127.572L100.283 123.978L97.363 121.801C97.2302 121.698 97.1431 121.575 97.1016 121.434C97.0602 121.293 97.0594 121.152 97.0994 121.011C97.1395 120.871 97.2062 120.753 97.2997 120.659C97.3931 120.564 97.5262 120.498 97.699 120.461L101.304 119.882L102.468 116.452C102.519 116.298 102.608 116.179 102.733 116.095C102.859 116.011 102.99 115.963 103.127 115.954C103.264 115.944 103.401 115.972 103.537 116.037C103.674 116.102 103.778 116.208 103.852 116.353L105.493 119.581L109.144 119.638C109.321 119.65 109.462 119.697 109.568 119.777C109.674 119.857 109.757 119.964 109.817 120.097C109.876 120.231 109.896 120.37 109.875 120.516C109.854 120.662 109.785 120.795 109.669 120.916L107.09 123.489L108.167 126.964C108.216 127.124 108.214 127.271 108.161 127.406C108.109 127.542 108.029 127.657 107.923 127.753C107.817 127.848 107.69 127.907 107.541 127.93C107.393 127.954 107.246 127.927 107.103 127.849L103.864 126.202Z" fill="white"/>
</g>
<mask id="mask4_1647_30142" style="mask-type:alpha" maskUnits="userSpaceOnUse" x="107" y="111" width="20" height="20">
<rect x="107.424" y="112.957" width="18" height="18" transform="rotate(-4.11206 107.424 112.957)" fill="#D9D9D9"/>
</mask>
<g mask="url(#mask4_1647_30142)">
<path d="M117.329 125.233L114.359 127.327C114.228 127.424 114.087 127.472 113.937 127.47C113.786 127.468 113.652 127.428 113.533 127.349C113.415 127.269 113.32 127.167 113.248 127.04C113.176 126.914 113.153 126.768 113.179 126.603L113.748 123.009L110.828 120.832C110.695 120.729 110.608 120.607 110.566 120.465C110.525 120.324 110.524 120.183 110.564 120.043C110.604 119.902 110.671 119.784 110.765 119.69C110.858 119.595 110.991 119.529 111.164 119.492L114.769 118.913L115.932 115.483C115.984 115.329 116.073 115.21 116.198 115.126C116.324 115.042 116.455 114.995 116.592 114.985C116.729 114.975 116.866 115.003 117.002 115.068C117.139 115.134 117.243 115.239 117.316 115.384L118.958 118.612L122.609 118.669C122.786 118.682 122.927 118.728 123.033 118.808C123.139 118.888 123.222 118.995 123.281 119.128C123.341 119.262 123.361 119.402 123.34 119.547C123.319 119.693 123.25 119.826 123.134 119.947L120.555 122.52L121.632 125.996C121.681 126.155 121.679 126.302 121.626 126.438C121.573 126.573 121.494 126.688 121.388 126.784C121.282 126.879 121.155 126.938 121.006 126.962C120.857 126.985 120.711 126.958 120.568 126.88L117.329 125.233Z" fill="white"/>
</g>
</g>
<defs>
<filter id="filter0_d_1647_30142" x="0.475" y="91.0844" width="152.052" height="66.2375" filterUnits="userSpaceOnUse" color-interpolation-filters="sRGB">
<feFlood flood-opacity="0" result="BackgroundImageFix"/>
<feColorMatrix in="SourceAlpha" type="matrix" values="0 0 0 0 0 0 0 0 0 0 0 0 0 0 0 0 0 0 127 0" result="hardAlpha"/>
<feOffset/>
<feGaussianBlur stdDeviation="7.2"/>
<feColorMatrix type="matrix" values="0 0 0 0 0.835294 0 0 0 0 0.627451 0 0 0 0 0 0 0 0 1 0"/>
<feBlend mode="normal" in2="BackgroundImageFix" result="effect1_dropShadow_1647_30142"/>
<feBlend mode="normal" in="SourceGraphic" in2="effect1_dropShadow_1647_30142" result="shape"/>
</filter>
<clipPath id="clip0_1647_30142">
<rect x="7.65039" width="129.6" height="129.6" rx="64.8" fill="white"/>
</clipPath>
</defs>
</svg>
