<svg width="153" height="157" viewBox="0 0 153 157" fill="none" xmlns="http://www.w3.org/2000/svg">
<g clip-path="url(#clip0_1634_32697)">
<rect x="7.65039" width="129.6" height="129.6" rx="64.8" fill="#7C60F5"/>
<path fill-rule="evenodd" clip-rule="evenodd" d="M99.1302 105.399L125.609 79.0192C132.621 72.0331 136.477 64.9098 137.178 57.6494C137.847 50.3586 135.27 43.8117 129.445 38.0085C125.084 33.6637 120.068 31.3998 114.396 31.2167C108.694 31.0032 103.328 32.8859 98.2971 36.8648L97.9312 36.5002C100.675 32.6729 101.802 28.2681 101.314 23.286C100.825 18.243 98.8275 13.9745 95.3204 10.4805C90.3494 5.52801 80.9459 -0.499318 74.4207 0.0465656C67.8649 0.562066 61.6602 3.73576 55.8066 9.56764L29.4652 35.8111L33.7516 40.2638L30.0354 36.5002L56.7985 63.346L-8.5324 128.434L3.17823 140.101L68.5091 75.0131L91.5644 97.9827L91.6252 97.9222L99.1302 105.399ZM67.4322 52.9451L47.5196 33.324L61.2303 20.4224C64.9498 16.7167 68.6391 14.6819 72.2981 14.3178C75.9571 13.9538 79.3114 15.291 82.361 18.3293C85.6242 21.5803 87.274 25.1129 86.6648 29.2443C86.0555 33.3757 85.0632 35.0391 80.6424 39.4434L67.4322 52.9451ZM115.134 72.7749L101.003 86.8534L78.7969 64.6012L92.2986 51.0024C102.116 41.2218 111.135 40.6336 118.332 47.804C121.9 51.3589 123.41 55.2627 122.862 59.5157C122.314 63.7686 119.738 68.1884 115.134 72.7749Z" fill="white"/>
</g>
<g filter="url(#filter0_d_1634_32697)">
<rect x="14.875" y="114.195" width="121.5" height="28.8" rx="7.2" transform="rotate(-4.11206 14.875 114.195)" fill="#00AC00"/>
<path d="M35.57 135.164L32.9632 135.352L32.7742 132.723L27.3881 133.111L27.258 131.301L29.4209 119.516L32.2001 119.317L30.1447 130.487L32.6007 130.311L32.3266 126.497L34.9334 126.31L35.2076 130.123L36.5649 130.026L36.7384 132.438L35.3811 132.536L35.57 135.164ZM38.1476 137.621L38.0577 136.372C38.9841 136.305 39.141 136.077 39.0791 135.215C38.2388 135.276 37.6877 134.839 37.6211 133.913C37.5436 132.835 38.0066 132.347 39.0408 132.273C40.118 132.196 40.646 132.612 40.7312 133.797C40.9527 136.878 39.8789 137.605 38.1476 137.621ZM45.092 118.087C48.0005 117.877 49.4634 119.851 49.6771 122.824L50.134 129.18C50.3509 132.196 49.4516 134.448 46.3277 134.673C43.1822 134.899 42.0532 132.749 41.906 130.703L41.8596 130.056L44.5311 129.864L44.5775 130.511C44.6364 131.329 44.8385 132.333 46.1527 132.238C47.3807 132.15 47.588 131.117 47.5028 129.932L47.3169 127.347L47.2523 127.351C46.8663 128.007 46.2063 128.466 45.1937 128.539C42.7377 128.716 41.5102 126.703 41.3522 124.506L41.2609 123.234C41.058 120.412 42.205 118.294 45.092 118.087ZM45.2916 120.563C44.0636 120.651 43.8625 121.77 43.9524 123.019L44.0422 124.269C44.1011 125.088 44.4479 126.297 45.7621 126.203C46.7316 126.133 47.1729 125.343 47.08 124.051L46.9901 122.801C46.9111 121.702 46.6058 120.468 45.2916 120.563Z" fill="white"/>
<mask id="mask0_1634_32697" style="mask-type:alpha" maskUnits="userSpaceOnUse" x="54" y="115" width="20" height="20">
<rect x="54.5605" y="116.758" width="18" height="18" transform="rotate(-4.11206 54.5605 116.758)" fill="#D9D9D9"/>
</mask>
<g mask="url(#mask0_1634_32697)">
<path d="M64.4656 129.034L61.4956 131.128C61.3647 131.225 61.224 131.272 61.0735 131.271C60.923 131.269 60.7885 131.229 60.67 131.149C60.5516 131.07 60.4564 130.967 60.3847 130.841C60.3129 130.714 60.2899 130.569 60.3157 130.404L60.8844 126.81L57.9645 124.633C57.8318 124.53 57.7447 124.407 57.7032 124.266C57.6617 124.125 57.661 123.984 57.701 123.843C57.741 123.703 57.8078 123.585 57.9012 123.491C57.9947 123.396 58.1278 123.33 58.3006 123.293L61.9058 122.714L63.0691 119.284C63.1207 119.13 63.2093 119.011 63.3348 118.927C63.4604 118.843 63.5917 118.796 63.7288 118.786C63.866 118.776 64.0027 118.804 64.139 118.869C64.2753 118.934 64.38 119.04 64.4531 119.185L66.095 122.413L69.746 122.47C69.9224 122.482 70.0635 122.529 70.1696 122.609C70.2756 122.689 70.3585 122.796 70.4182 122.929C70.4779 123.063 70.4973 123.202 70.4765 123.348C70.4556 123.494 70.3869 123.627 70.2703 123.748L67.6919 126.321L68.7689 129.796C68.8179 129.956 68.816 130.103 68.7631 130.239C68.7101 130.374 68.6307 130.489 68.5248 130.585C68.4188 130.68 68.2915 130.739 68.1428 130.762C67.9941 130.786 67.848 130.759 67.7046 130.681L64.4656 129.034Z" fill="white"/>
</g>
<mask id="mask1_1634_32697" style="mask-type:alpha" maskUnits="userSpaceOnUse" x="68" y="114" width="20" height="20">
<rect x="68.0254" y="115.789" width="18" height="18" transform="rotate(-4.11206 68.0254 115.789)" fill="#D9D9D9"/>
</mask>
<g mask="url(#mask1_1634_32697)">
<path d="M77.9305 128.065L74.9604 130.159C74.8296 130.256 74.6889 130.304 74.5384 130.302C74.3879 130.3 74.2534 130.26 74.1349 130.181C74.0164 130.101 73.9213 129.999 73.8495 129.872C73.7778 129.746 73.7548 129.6 73.7805 129.435L74.3493 125.842L71.4294 123.664C71.2966 123.561 71.2095 123.439 71.168 123.297C71.1266 123.156 71.1258 123.015 71.1658 122.875C71.2059 122.734 71.2726 122.616 71.3661 122.522C71.4595 122.427 71.5926 122.361 71.7654 122.324L75.3707 121.745L76.534 118.315C76.5856 118.161 76.6741 118.042 76.7997 117.958C76.9252 117.874 77.0565 117.827 77.1937 117.817C77.3308 117.807 77.4676 117.835 77.6038 117.9C77.7401 117.966 77.8448 118.071 77.9179 118.216L79.5599 121.444L83.2109 121.501C83.3872 121.514 83.5284 121.56 83.6344 121.64C83.7404 121.72 83.8233 121.827 83.883 121.96C83.9428 122.094 83.9622 122.234 83.9413 122.379C83.9205 122.525 83.8517 122.658 83.7351 122.779L81.1567 125.352L82.2337 128.828C82.2828 128.987 82.2808 129.134 82.2279 129.27C82.175 129.405 82.0955 129.521 81.9896 129.616C81.8837 129.711 81.7563 129.77 81.6076 129.794C81.4589 129.817 81.3128 129.79 81.1694 129.712L77.9305 128.065Z" fill="white"/>
</g>
<mask id="mask2_1634_32697" style="mask-type:alpha" maskUnits="userSpaceOnUse" x="81" y="113" width="20" height="20">
<rect x="81.4902" y="114.82" width="18" height="18" transform="rotate(-4.11206 81.4902 114.82)" fill="#D9D9D9"/>
</mask>
<g mask="url(#mask2_1634_32697)">
<path d="M91.3953 127.097L88.4253 129.19C88.2944 129.287 88.1537 129.335 88.0032 129.333C87.8527 129.331 87.7182 129.291 87.5997 129.212C87.4812 129.133 87.3861 129.03 87.3144 128.903C87.2426 128.777 87.2196 128.631 87.2454 128.467L87.8141 124.873L84.8942 122.695C84.7615 122.592 84.6744 122.47 84.6329 122.329C84.5914 122.188 84.5907 122.047 84.6307 121.906C84.6707 121.765 84.7374 121.648 84.8309 121.553C84.9244 121.459 85.0575 121.393 85.2302 121.355L88.8355 120.776L89.9988 117.347C90.0504 117.193 90.139 117.073 90.2645 116.989C90.39 116.905 90.5214 116.858 90.6585 116.848C90.7957 116.838 90.9324 116.866 91.0687 116.931C91.205 116.997 91.3097 117.102 91.3828 117.247L93.0247 120.475L96.6757 120.532C96.8521 120.545 96.9932 120.591 97.0992 120.671C97.2053 120.751 97.2881 120.858 97.3479 120.992C97.4076 121.125 97.427 121.265 97.4062 121.41C97.3853 121.556 97.3166 121.689 97.2 121.811L94.6216 124.383L95.6986 127.859C95.7476 128.018 95.7457 128.166 95.6927 128.301C95.6398 128.436 95.5604 128.552 95.4545 128.647C95.3485 128.742 95.2212 128.802 95.0725 128.825C94.9238 128.848 94.7777 128.821 94.6343 128.744L91.3953 127.097Z" fill="white"/>
</g>
<mask id="mask3_1634_32697" style="mask-type:alpha" maskUnits="userSpaceOnUse" x="94" y="112" width="21" height="20">
<rect x="94.957" y="113.855" width="18" height="18" transform="rotate(-4.11206 94.957 113.855)" fill="#D9D9D9"/>
</mask>
<g mask="url(#mask3_1634_32697)">
<path d="M104.862 126.132L101.892 128.225C101.761 128.322 101.621 128.37 101.47 128.368C101.32 128.367 101.185 128.326 101.067 128.247C100.948 128.168 100.853 128.065 100.781 127.939C100.709 127.812 100.686 127.666 100.712 127.502L101.281 123.908L98.361 121.73C98.2283 121.627 98.1412 121.505 98.0997 121.364C98.0582 121.223 98.0575 121.082 98.0975 120.941C98.1375 120.8 98.2042 120.683 98.2977 120.588C98.3912 120.494 98.5243 120.428 98.697 120.39L102.302 119.812L103.466 116.382C103.517 116.228 103.606 116.109 103.731 116.024C103.857 115.94 103.988 115.893 104.125 115.883C104.262 115.873 104.399 115.901 104.535 115.967C104.672 116.032 104.776 116.137 104.85 116.282L106.492 119.51L110.143 119.568C110.319 119.58 110.46 119.626 110.566 119.706C110.672 119.786 110.755 119.893 110.815 120.027C110.874 120.16 110.894 120.3 110.873 120.446C110.852 120.591 110.783 120.725 110.667 120.846L108.088 123.419L109.165 126.894C109.214 127.053 109.212 127.201 109.16 127.336C109.107 127.472 109.027 127.587 108.921 127.682C108.815 127.778 108.688 127.837 108.539 127.86C108.391 127.883 108.244 127.856 108.101 127.779L104.862 126.132Z" fill="white"/>
</g>
<mask id="mask4_1634_32697" style="mask-type:alpha" maskUnits="userSpaceOnUse" x="108" y="111" width="20" height="20">
<rect x="108.422" y="112.887" width="18" height="18" transform="rotate(-4.11206 108.422 112.887)" fill="#D9D9D9"/>
</mask>
<g mask="url(#mask4_1634_32697)">
<path d="M118.327 125.163L115.357 127.256C115.226 127.354 115.085 127.401 114.935 127.4C114.784 127.398 114.65 127.357 114.531 127.278C114.413 127.199 114.318 127.096 114.246 126.97C114.174 126.843 114.151 126.698 114.177 126.533L114.746 122.939L111.826 120.762C111.693 120.658 111.606 120.536 111.565 120.395C111.523 120.254 111.522 120.113 111.562 119.972C111.602 119.832 111.669 119.714 111.763 119.62C111.856 119.525 111.989 119.459 112.162 119.422L115.767 118.843L116.93 115.413C116.982 115.259 117.071 115.14 117.196 115.056C117.322 114.971 117.453 114.924 117.59 114.915C117.727 114.905 117.864 114.932 118 114.998C118.137 115.063 118.241 115.169 118.314 115.314L119.956 118.542L123.607 118.599C123.784 118.611 123.925 118.657 124.031 118.738C124.137 118.818 124.22 118.924 124.28 119.058C124.339 119.192 124.359 119.331 124.338 119.477C124.317 119.622 124.248 119.756 124.132 119.877L121.553 122.45L122.63 125.925C122.679 126.085 122.677 126.232 122.624 126.367C122.571 126.503 122.492 126.618 122.386 126.714C122.28 126.809 122.153 126.868 122.004 126.891C121.855 126.915 121.709 126.888 121.566 126.81L118.327 125.163Z" fill="white"/>
</g>
</g>
<defs>
<filter id="filter0_d_1634_32697" x="0.475" y="91.0844" width="152.052" height="66.2375" filterUnits="userSpaceOnUse" color-interpolation-filters="sRGB">
<feFlood flood-opacity="0" result="BackgroundImageFix"/>
<feColorMatrix in="SourceAlpha" type="matrix" values="0 0 0 0 0 0 0 0 0 0 0 0 0 0 0 0 0 0 127 0" result="hardAlpha"/>
<feOffset/>
<feGaussianBlur stdDeviation="7.2"/>
<feColorMatrix type="matrix" values="0 0 0 0 0 0 0 0 0 0.67451 0 0 0 0 0 0 0 0 1 0"/>
<feBlend mode="normal" in2="BackgroundImageFix" result="effect1_dropShadow_1634_32697"/>
<feBlend mode="normal" in="SourceGraphic" in2="effect1_dropShadow_1634_32697" result="shape"/>
</filter>
<clipPath id="clip0_1634_32697">
<rect x="7.65039" width="129.6" height="129.6" rx="64.8" fill="white"/>
</clipPath>
</defs>
</svg>
