<svg width="200" height="56" viewBox="0 0 200 56" fill="none" xmlns="http://www.w3.org/2000/svg">
<rect width="200" height="56" rx="10" fill="#0077FF"/>
<g clip-path="url(#clip0_1647_29916)">
<path fill-rule="evenodd" clip-rule="evenodd" d="M49.845 44.0012C42.6086 44.0012 38.9723 44.0012 36.7177 41.7503C34.4668 39.4994 34.4668 35.8958 34.4668 28.623L34.4668 27.343C34.4668 20.1067 34.4668 16.4703 36.7177 14.2158C38.9686 11.9648 42.5723 11.9648 49.845 11.9648L51.125 11.9648C58.3614 11.9648 61.9977 11.9648 64.2523 14.2158C66.5032 16.4667 66.5032 20.0703 66.5032 27.343V28.623C66.5032 35.8594 66.5032 39.4958 64.2523 41.7503C62.0014 44.0048 58.3977 44.0012 51.125 44.0012H49.845Z" fill="white"/>
<path d="M53.1172 17.8555C52.2809 17.8473 51.5536 18.521 51.5536 19.401V21.281L47.6263 20.3028C47.5041 20.2723 47.3823 20.257 47.2627 20.2559C46.4263 20.2477 45.699 20.9214 45.699 21.8014V23.6741L41.8081 22.7032C40.83 22.4595 39.8809 23.1977 39.8809 24.2014V34.6377C39.8809 35.525 40.4845 36.2959 41.3463 36.5105L47.5645 38.0595C48.5427 38.3032 49.4918 37.565 49.4918 36.5614V26.125C49.4918 25.4886 49.1801 24.9141 48.6881 24.5614C48.6803 24.5357 48.6821 24.5072 48.6981 24.4839C48.7253 24.4443 48.7744 24.4254 48.8202 24.4392C49.6384 24.6865 50.4166 25.5228 50.4966 26.5774L50.7664 34.541C50.7734 34.8079 50.9515 35.0355 51.2028 35.1192L53.3846 35.661C54.3628 35.9046 55.3119 35.1665 55.3119 34.1628C55.3376 30.7192 55.3302 27.2174 55.3311 23.7628C55.3311 23.2937 55.1725 22.9337 54.9943 22.6719C54.9655 22.6283 54.9351 22.5854 54.9027 22.5439C54.8638 22.4945 54.8213 22.4475 54.7776 22.4017C54.7125 22.3334 54.6431 22.2683 54.5682 22.2101L54.5667 22.2087C54.5359 22.1777 54.5271 22.1294 54.5525 22.093C54.5798 22.0534 54.6289 22.0345 54.6747 22.0483C55.4929 22.2956 56.2747 23.1319 56.3511 24.1865L56.6209 32.1501C56.6278 32.4149 56.8042 32.641 57.0536 32.721L59.2391 33.2665C60.2173 33.5101 61.1663 32.7719 61.1663 31.7683V21.3319C61.1663 20.4447 60.5627 19.6738 59.7009 19.4592L53.4827 17.9101C53.3605 17.8797 53.2387 17.8643 53.1191 17.8632L53.1172 17.8555Z" fill="#0077FF"/>
</g>
<path d="M83.348 37H79.484V19.144H84.668C88.028 19.144 89.732 20.752 89.732 23.704V25.168C89.732 27.064 88.94 28.432 87.428 28.888V28.912C88.916 29.248 89.492 30.736 89.564 32.608L89.66 34.84C89.708 35.704 89.804 36.52 90.02 37H86.156C86.036 36.496 85.916 35.512 85.844 34.216L85.748 32.152C85.676 31.096 85.196 30.592 84.164 30.592H83.348V37ZM83.348 22.384V27.64H84.332C85.22 27.64 85.868 27.208 85.868 25.696V24.16C85.868 22.912 85.388 22.384 84.452 22.384H83.348ZM96.2428 37.336C92.6428 37.336 91.0107 35.536 91.0107 31.432V19.144H94.8748V31.84C94.8748 33.232 95.3548 33.928 96.2428 33.928C97.1068 33.928 97.5868 33.232 97.5868 31.84V19.144H101.451V31.384C101.451 35.512 99.8188 37.336 96.2428 37.336ZM107.954 37.336C104.594 37.336 102.698 35.704 102.698 32.224V31.168H106.49V32.224C106.49 33.16 106.778 34.024 107.954 34.024C108.794 34.024 109.202 33.496 109.202 32.728V31.576C109.202 30.28 108.53 30.04 106.49 29.104C103.922 27.88 102.866 26.824 102.866 24.304V23.272C102.866 20.392 104.93 18.832 107.906 18.832C111.194 18.832 112.97 20.704 112.946 23.896V24.856H109.298V23.896C109.298 22.816 108.914 22.144 107.906 22.144C107.09 22.144 106.73 22.624 106.73 23.272V24.304C106.754 25.336 107.498 25.696 108.602 26.176C111.866 27.544 113.114 28.864 113.114 31.624V32.776C113.114 35.68 111.002 37.336 107.954 37.336ZM120.309 37H116.445V22.672H113.613V19.144H123.165V22.672H120.309V37ZM129.171 37.336C125.667 37.336 123.915 35.272 123.915 31.24V24.928C123.915 20.896 125.667 18.832 129.171 18.832C132.675 18.832 134.427 20.896 134.427 24.928V31.24C134.427 35.272 132.675 37.336 129.171 37.336ZM129.171 33.928C130.083 33.928 130.563 33.304 130.563 31.792V24.376C130.563 22.864 130.083 22.24 129.171 22.24C128.283 22.24 127.779 22.864 127.779 24.376V31.792C127.779 33.304 128.283 33.928 129.171 33.928ZM139.996 37H136.132V19.144H141.316C144.676 19.144 146.38 20.752 146.38 23.704V25.168C146.38 27.064 145.588 28.432 144.076 28.888V28.912C145.564 29.248 146.14 30.736 146.212 32.608L146.308 34.84C146.356 35.704 146.452 36.52 146.668 37H142.804C142.684 36.496 142.564 35.512 142.492 34.216L142.396 32.152C142.324 31.096 141.844 30.592 140.812 30.592H139.996V37ZM139.996 22.384V27.64H140.98C141.868 27.64 142.516 27.208 142.516 25.696V24.16C142.516 22.912 142.036 22.384 141.1 22.384H139.996ZM156.419 37H147.851V19.144H156.275V22.552H151.715V26.296H155.747V29.56H151.715V33.544H156.419V37Z" fill="white"/>
<defs>
<clipPath id="clip0_1647_29916">
<rect width="32" height="32" fill="white" transform="translate(34.5 12)"/>
</clipPath>
</defs>
</svg>
