<svg width="200" height="56" viewBox="0 0 200 56" fill="none" xmlns="http://www.w3.org/2000/svg">
<rect width="200" height="56" rx="10" fill="#7C60F5"/>
<path d="M23.908 40.8809L36.1736 33.9577L33.54 31.0409L23.908 40.8809ZM19.428 15.3977C19.2856 15.6505 19.1992 15.9417 19.1992 16.2649V40.4649C19.1992 40.9129 19.3672 41.2969 19.62 41.6009L31.8232 29.1369L19.428 15.3977ZM43.9672 27.1721L39.6904 24.7577L35.3352 29.2073L38.4568 32.6681L43.9672 29.5593C44.195 29.4463 44.3906 29.2776 44.536 29.069C44.6815 28.8604 44.772 28.6185 44.7992 28.3657C44.772 28.1129 44.6815 27.871 44.536 27.6624C44.3906 27.4538 44.195 27.2852 43.9672 27.1721ZM37.3832 23.4553L22.6312 15.1289L33.6168 27.3049L37.3832 23.4553Z" fill="white"/>
<path d="M65.976 37.336C62.448 37.336 60.72 35.32 60.72 31.24V24.952C60.72 20.848 62.448 18.832 65.976 18.832C69.672 18.832 71.16 20.92 71.16 24.688V25.744H67.344V24.184C67.344 23.056 67.032 22.24 65.976 22.24C65.16 22.24 64.584 22.864 64.584 24.232V31.912C64.584 33.472 65.136 34.096 66.048 34.096C67.104 34.096 67.656 33.52 67.656 31.984V30.712H66.144V27.688H71.184V31.024C71.184 35.224 69.816 37.336 65.976 37.336ZM77.7651 37.336C74.2611 37.336 72.5091 35.272 72.5091 31.24V24.928C72.5091 20.896 74.2611 18.832 77.7651 18.832C81.2691 18.832 83.0211 20.896 83.0211 24.928V31.24C83.0211 35.272 81.2691 37.336 77.7651 37.336ZM77.7651 33.928C78.6771 33.928 79.1571 33.304 79.1571 31.792V24.376C79.1571 22.864 78.6771 22.24 77.7651 22.24C76.8771 22.24 76.3731 22.864 76.3731 24.376V31.792C76.3731 33.304 76.8771 33.928 77.7651 33.928ZM89.7182 37.336C86.2142 37.336 84.4622 35.272 84.4622 31.24V24.928C84.4622 20.896 86.2142 18.832 89.7182 18.832C93.2222 18.832 94.9742 20.896 94.9742 24.928V31.24C94.9742 35.272 93.2222 37.336 89.7182 37.336ZM89.7182 33.928C90.6302 33.928 91.1102 33.304 91.1102 31.792V24.376C91.1102 22.864 90.6302 22.24 89.7182 22.24C88.8302 22.24 88.3262 22.864 88.3262 24.376V31.792C88.3262 33.304 88.8302 33.928 89.7182 33.928ZM101.671 37.336C98.1433 37.336 96.4153 35.32 96.4153 31.24V24.952C96.4153 20.848 98.1433 18.832 101.671 18.832C105.367 18.832 106.855 20.92 106.855 24.688V25.744H103.039V24.184C103.039 23.056 102.727 22.24 101.671 22.24C100.855 22.24 100.279 22.864 100.279 24.232V31.912C100.279 33.472 100.831 34.096 101.743 34.096C102.799 34.096 103.351 33.52 103.351 31.984V30.712H101.839V27.688H106.879V31.024C106.879 35.224 105.511 37.336 101.671 37.336ZM116.58 37H108.468V19.144H112.332V33.472H116.58V37ZM126.411 37H117.843V19.144H126.267V22.552H121.707V26.296H125.739V29.56H121.707V33.544H126.411V37ZM137.153 37H133.289V19.144H138.353C141.569 19.144 143.537 20.896 143.537 24.616V26.608C143.537 30.472 141.641 32.224 138.713 32.224H137.153V37ZM137.153 22.576V28.792H137.993C139.001 28.792 139.673 28.384 139.673 26.608V24.712C139.673 23.104 139.097 22.576 138.041 22.576H137.153ZM152.885 37H144.773V19.144H148.637V33.472H152.885V37ZM165.428 37H161.468L161.012 34H157.7L157.22 37H153.284L156.764 19.144H161.924L165.428 37ZM159.164 24.688L158.204 30.784H160.508L159.548 24.688L159.38 23.32H159.332L159.164 24.688ZM171.625 37H167.761V32.032L164.065 19.144H168.073L169.561 26.896L169.657 27.712H169.705L169.825 26.896L171.265 19.144H175.297L171.625 32.032V37Z" fill="white"/>
</svg>
