<svg width="24" height="24" viewBox="0 0 24 24" fill="none" xmlns="http://www.w3.org/2000/svg">
<mask id="mask0_1647_30065" style="mask-type:alpha" maskUnits="userSpaceOnUse" x="0" y="0" width="24" height="24">
<rect width="24" height="24" fill="#D9D9D9"/>
</mask>
<g mask="url(#mask0_1647_30065)">
<path d="M9.99961 13.9258L16.0996 7.82578C16.2829 7.64245 16.4954 7.55078 16.7371 7.55078C16.9788 7.55078 17.1913 7.64245 17.3746 7.82578C17.5579 8.00911 17.6496 8.22161 17.6496 8.46328C17.6496 8.70495 17.5579 8.91745 17.3746 9.10078L10.6246 15.8508C10.4413 16.0341 10.2288 16.1258 9.98711 16.1258C9.74544 16.1258 9.53294 16.0341 9.34961 15.8508L6.62461 13.1258C6.44128 12.9424 6.34961 12.7299 6.34961 12.4883C6.34961 12.2466 6.44128 12.0341 6.62461 11.8508C6.80794 11.6674 7.02044 11.5758 7.26211 11.5758C7.50378 11.5758 7.71628 11.6674 7.89961 11.8508L9.99961 13.9258Z" fill="#7C60F5"/>
</g>
</svg>
