<svg width="64" height="64" viewBox="0 0 64 64" fill="none" xmlns="http://www.w3.org/2000/svg">
<path opacity="0.4" d="M43.174 10.668H20.8273C11.1207 10.668 5.33398 16.4546 5.33398 26.1613V43.148C5.33398 52.8813 11.1207 58.668 20.8273 58.668H43.1473C52.854 58.668 58.6407 52.8813 58.6407 43.1746V26.1613C58.6673 16.4546 52.8807 10.668 43.174 10.668Z" fill="#7C60F5"/>
<path d="M56.8007 32.6133H47.5207C44.9073 32.6133 42.5873 34.0533 41.414 36.3999L39.174 40.8266C38.6407 41.8933 37.574 42.5599 36.4007 42.5599H27.654C26.8273 42.5599 25.654 42.3733 24.8807 40.8266L22.6407 36.4266C21.4673 34.1066 19.1207 32.6399 16.534 32.6399H7.20065C6.16065 32.6399 5.33398 33.4666 5.33398 34.5066V43.2C5.33398 52.88 11.1473 58.6666 20.854 58.6666H43.2007C52.3473 58.6666 57.974 53.6533 58.6673 44.7466V34.4799C58.6673 33.4666 57.8406 32.6133 56.8007 32.6133Z" fill="#7C60F5"/>
<path d="M38.7472 17.252C37.9738 16.4787 36.6938 16.4787 35.9205 17.252L34.0005 19.172V5.33203C34.0005 4.2387 33.0938 3.33203 32.0005 3.33203C30.9072 3.33203 30.0005 4.2387 30.0005 5.33203V19.172L28.0805 17.252C27.3072 16.4787 26.0272 16.4787 25.2538 17.252C24.4805 18.0254 24.4805 19.3054 25.2538 20.0787L30.5872 25.412C30.6138 25.4387 30.6405 25.4387 30.6405 25.4654C30.8005 25.6254 31.0138 25.7587 31.2272 25.8654C31.4938 25.9454 31.7338 25.9987 32.0005 25.9987C32.2672 25.9987 32.5072 25.9454 32.7472 25.8387C32.9872 25.732 33.2005 25.5987 33.4138 25.412L38.7472 20.0787C39.5205 19.3054 39.5205 18.0254 38.7472 17.252Z" fill="#7C60F5"/>
</svg>
