<svg width="212" height="64" viewBox="0 0 212 64" fill="none" xmlns="http://www.w3.org/2000/svg">
<rect x="1" y="1" width="210" height="62" rx="9" stroke="white" stroke-width="2"/>
<g clip-path="url(#clip0_1647_29930)">
<path d="M61.127 15.9629C68.3632 15.9629 71.9994 15.9631 74.2539 18.2139C76.5048 20.4648 76.5049 24.0683 76.5049 31.3408V32.6211C76.5049 39.8574 76.5048 43.4935 74.2539 45.748C72.003 48.0026 68.3997 47.999 61.127 47.999H59.8467C52.6105 47.999 48.9742 47.9989 46.7197 45.748C44.4689 43.4971 44.4688 39.8937 44.4688 32.6211V31.3408C44.4687 24.1046 44.4688 20.4684 46.7197 18.2139C48.9706 15.963 52.5741 15.9629 59.8467 15.9629H61.127ZM63.1191 21.8555C62.2828 21.8473 61.5557 22.5214 61.5557 23.4014V25.2812L57.6279 24.3027C57.5059 24.2723 57.3842 24.257 57.2646 24.2559C56.4283 24.2476 55.7012 24.9218 55.7012 25.8018V27.6738L51.8105 26.7031C50.8324 26.4595 49.8829 27.1976 49.8828 28.2012V38.6377C49.8828 39.525 50.4868 40.2962 51.3486 40.5107L57.5664 42.0596C58.5445 42.3032 59.494 41.5651 59.4941 40.5615V30.125C59.4941 29.4888 59.1823 28.9143 58.6904 28.5615C58.6826 28.5359 58.6843 28.5076 58.7002 28.4844C58.7275 28.4447 58.7764 28.4256 58.8223 28.4395C59.6404 28.6868 60.419 29.5227 60.499 30.5771L60.7686 38.541C60.7755 38.8079 60.9538 39.0355 61.2051 39.1191L63.3867 39.6611C64.3647 39.9046 65.3133 39.1665 65.3135 38.1631C65.3392 34.7194 65.3321 31.2172 65.333 27.7627C65.333 27.2937 65.1743 26.9337 64.9961 26.6719C64.9672 26.6283 64.9366 26.5854 64.9043 26.5439C64.8654 26.4945 64.8229 26.4471 64.7793 26.4014C64.7143 26.3331 64.6451 26.268 64.5703 26.21L64.5684 26.209C64.5375 26.178 64.5293 26.1291 64.5547 26.0928C64.582 26.0533 64.6311 26.0341 64.6768 26.0479C65.4949 26.2951 66.2772 27.132 66.3535 28.1865L66.623 36.1504C66.6301 36.415 66.8063 36.6407 67.0557 36.7207L69.2412 37.2666C70.2192 37.5101 71.1678 36.772 71.168 35.7686V25.332C71.168 24.4448 70.5648 23.6736 69.7031 23.459L63.4844 21.9102C63.3623 21.8797 63.2406 21.8644 63.1211 21.8633L63.1191 21.8555Z" fill="white"/>
</g>
<path d="M93.348 41H89.484V23.144H94.668C98.028 23.144 99.732 24.752 99.732 27.704V29.168C99.732 31.064 98.94 32.432 97.428 32.888V32.912C98.916 33.248 99.492 34.736 99.564 36.608L99.66 38.84C99.708 39.704 99.804 40.52 100.02 41H96.156C96.036 40.496 95.916 39.512 95.844 38.216L95.748 36.152C95.676 35.096 95.196 34.592 94.164 34.592H93.348V41ZM93.348 26.384V31.64H94.332C95.22 31.64 95.868 31.208 95.868 29.696V28.16C95.868 26.912 95.388 26.384 94.452 26.384H93.348ZM106.243 41.336C102.643 41.336 101.011 39.536 101.011 35.432V23.144H104.875V35.84C104.875 37.232 105.355 37.928 106.243 37.928C107.107 37.928 107.587 37.232 107.587 35.84V23.144H111.451V35.384C111.451 39.512 109.819 41.336 106.243 41.336ZM117.954 41.336C114.594 41.336 112.698 39.704 112.698 36.224V35.168H116.49V36.224C116.49 37.16 116.778 38.024 117.954 38.024C118.794 38.024 119.202 37.496 119.202 36.728V35.576C119.202 34.28 118.53 34.04 116.49 33.104C113.922 31.88 112.866 30.824 112.866 28.304V27.272C112.866 24.392 114.93 22.832 117.906 22.832C121.194 22.832 122.97 24.704 122.946 27.896V28.856H119.298V27.896C119.298 26.816 118.914 26.144 117.906 26.144C117.09 26.144 116.73 26.624 116.73 27.272V28.304C116.754 29.336 117.498 29.696 118.602 30.176C121.866 31.544 123.114 32.864 123.114 35.624V36.776C123.114 39.68 121.002 41.336 117.954 41.336ZM130.309 41H126.445V26.672H123.613V23.144H133.165V26.672H130.309V41ZM139.171 41.336C135.667 41.336 133.915 39.272 133.915 35.24V28.928C133.915 24.896 135.667 22.832 139.171 22.832C142.675 22.832 144.427 24.896 144.427 28.928V35.24C144.427 39.272 142.675 41.336 139.171 41.336ZM139.171 37.928C140.083 37.928 140.563 37.304 140.563 35.792V28.376C140.563 26.864 140.083 26.24 139.171 26.24C138.283 26.24 137.779 26.864 137.779 28.376V35.792C137.779 37.304 138.283 37.928 139.171 37.928ZM149.996 41H146.132V23.144H151.316C154.676 23.144 156.38 24.752 156.38 27.704V29.168C156.38 31.064 155.588 32.432 154.076 32.888V32.912C155.564 33.248 156.14 34.736 156.212 36.608L156.308 38.84C156.356 39.704 156.452 40.52 156.668 41H152.804C152.684 40.496 152.564 39.512 152.492 38.216L152.396 36.152C152.324 35.096 151.844 34.592 150.812 34.592H149.996V41ZM149.996 26.384V31.64H150.98C151.868 31.64 152.516 31.208 152.516 29.696V28.16C152.516 26.912 152.036 26.384 151.1 26.384H149.996ZM166.419 41H157.851V23.144H166.275V26.552H161.715V30.296H165.747V33.56H161.715V37.544H166.419V41Z" fill="white"/>
<defs>
<clipPath id="clip0_1647_29930">
<rect width="32" height="32" fill="white" transform="translate(44.5 16)"/>
</clipPath>
</defs>
</svg>
