<svg width="212" height="64" viewBox="0 0 212 64" fill="none" xmlns="http://www.w3.org/2000/svg">
<rect x="1" y="1" width="210" height="62" rx="9" stroke="white" stroke-width="2"/>
<path d="M31.908 44.8809L44.1736 37.9577L41.54 35.0409L31.908 44.8809ZM27.428 19.3977C27.2856 19.6505 27.1992 19.9417 27.1992 20.2649V44.4649C27.1992 44.9129 27.3672 45.2969 27.62 45.6009L39.8232 33.1369L27.428 19.3977ZM51.9672 31.1721L47.6904 28.7577L43.3352 33.2073L46.4568 36.6681L51.9672 33.5593C52.195 33.4463 52.3906 33.2776 52.536 33.069C52.6815 32.8604 52.772 32.6185 52.7992 32.3657C52.772 32.1129 52.6815 31.871 52.536 31.6624C52.3906 31.4538 52.195 31.2852 51.9672 31.1721ZM45.3832 27.4553L30.6312 19.1289L41.6168 31.3049L45.3832 27.4553Z" fill="white"/>
<path d="M73.976 41.336C70.448 41.336 68.72 39.32 68.72 35.24V28.952C68.72 24.848 70.448 22.832 73.976 22.832C77.672 22.832 79.16 24.92 79.16 28.688V29.744H75.344V28.184C75.344 27.056 75.032 26.24 73.976 26.24C73.16 26.24 72.584 26.864 72.584 28.232V35.912C72.584 37.472 73.136 38.096 74.048 38.096C75.104 38.096 75.656 37.52 75.656 35.984V34.712H74.144V31.688H79.184V35.024C79.184 39.224 77.816 41.336 73.976 41.336ZM85.7651 41.336C82.2611 41.336 80.5091 39.272 80.5091 35.24V28.928C80.5091 24.896 82.2611 22.832 85.7651 22.832C89.2691 22.832 91.0211 24.896 91.0211 28.928V35.24C91.0211 39.272 89.2691 41.336 85.7651 41.336ZM85.7651 37.928C86.6771 37.928 87.1571 37.304 87.1571 35.792V28.376C87.1571 26.864 86.6771 26.24 85.7651 26.24C84.8771 26.24 84.3731 26.864 84.3731 28.376V35.792C84.3731 37.304 84.8771 37.928 85.7651 37.928ZM97.7182 41.336C94.2142 41.336 92.4622 39.272 92.4622 35.24V28.928C92.4622 24.896 94.2142 22.832 97.7182 22.832C101.222 22.832 102.974 24.896 102.974 28.928V35.24C102.974 39.272 101.222 41.336 97.7182 41.336ZM97.7182 37.928C98.6302 37.928 99.1102 37.304 99.1102 35.792V28.376C99.1102 26.864 98.6302 26.24 97.7182 26.24C96.8302 26.24 96.3262 26.864 96.3262 28.376V35.792C96.3262 37.304 96.8302 37.928 97.7182 37.928ZM109.671 41.336C106.143 41.336 104.415 39.32 104.415 35.24V28.952C104.415 24.848 106.143 22.832 109.671 22.832C113.367 22.832 114.855 24.92 114.855 28.688V29.744H111.039V28.184C111.039 27.056 110.727 26.24 109.671 26.24C108.855 26.24 108.279 26.864 108.279 28.232V35.912C108.279 37.472 108.831 38.096 109.743 38.096C110.799 38.096 111.351 37.52 111.351 35.984V34.712H109.839V31.688H114.879V35.024C114.879 39.224 113.511 41.336 109.671 41.336ZM124.58 41H116.468V23.144H120.332V37.472H124.58V41ZM134.411 41H125.843V23.144H134.267V26.552H129.707V30.296H133.739V33.56H129.707V37.544H134.411V41ZM145.153 41H141.289V23.144H146.353C149.569 23.144 151.537 24.896 151.537 28.616V30.608C151.537 34.472 149.641 36.224 146.713 36.224H145.153V41ZM145.153 26.576V32.792H145.993C147.001 32.792 147.673 32.384 147.673 30.608V28.712C147.673 27.104 147.097 26.576 146.041 26.576H145.153ZM160.885 41H152.773V23.144H156.637V37.472H160.885V41ZM173.428 41H169.468L169.012 38H165.7L165.22 41H161.284L164.764 23.144H169.924L173.428 41ZM167.164 28.688L166.204 34.784H168.508L167.548 28.688L167.38 27.32H167.332L167.164 28.688ZM179.625 41H175.761V36.032L172.065 23.144H176.073L177.561 30.896L177.657 31.712H177.705L177.825 30.896L179.265 23.144H183.297L179.625 36.032V41Z" fill="white"/>
</svg>
