<svg width="212" height="64" viewBox="0 0 212 64" fill="none" xmlns="http://www.w3.org/2000/svg">
<rect x="1" y="1" width="210" height="62" rx="9" stroke="#0077FF" stroke-width="2"/>
<g clip-path="url(#clip0_1647_29734)">
<path fill-rule="evenodd" clip-rule="evenodd" d="M59.845 48.0012C52.6086 48.0012 48.9723 48.0012 46.7177 45.7503C44.4668 43.4994 44.4668 39.8958 44.4668 32.623L44.4668 31.343C44.4668 24.1067 44.4668 20.4703 46.7177 18.2158C48.9686 15.9648 52.5723 15.9648 59.845 15.9648L61.125 15.9648C68.3614 15.9648 71.9977 15.9648 74.2523 18.2158C76.5032 20.4667 76.5032 24.0703 76.5032 31.343V32.623C76.5032 39.8594 76.5032 43.4958 74.2523 45.7503C72.0014 48.0048 68.3977 48.0012 61.125 48.0012H59.845Z" fill="#0077FF"/>
<path d="M63.1172 21.8555C62.2809 21.8473 61.5536 22.521 61.5536 23.401V25.281L57.6263 24.3028C57.5041 24.2723 57.3823 24.257 57.2627 24.2559C56.4263 24.2477 55.699 24.9214 55.699 25.8014V27.6741L51.8081 26.7032C50.83 26.4595 49.8809 27.1977 49.8809 28.2014V38.6377C49.8809 39.525 50.4845 40.2959 51.3463 40.5105L57.5645 42.0595C58.5427 42.3032 59.4918 41.565 59.4918 40.5614V30.125C59.4918 29.4886 59.1801 28.9141 58.6881 28.5614C58.6803 28.5357 58.6821 28.5072 58.6981 28.4839C58.7253 28.4443 58.7744 28.4254 58.8202 28.4392C59.6384 28.6865 60.4166 29.5228 60.4966 30.5774L60.7664 38.541C60.7734 38.8079 60.9515 39.0355 61.2028 39.1192L63.3846 39.661C64.3628 39.9046 65.3119 39.1665 65.3119 38.1628C65.3376 34.7192 65.3302 31.2174 65.3311 27.7628C65.3311 27.2937 65.1725 26.9337 64.9943 26.6719C64.9655 26.6283 64.9351 26.5854 64.9027 26.5439C64.8638 26.4945 64.8213 26.4475 64.7776 26.4017C64.7125 26.3334 64.6431 26.2683 64.5682 26.2101L64.5667 26.2087C64.5359 26.1777 64.5271 26.1294 64.5525 26.093C64.5798 26.0534 64.6289 26.0345 64.6747 26.0483C65.4929 26.2956 66.2747 27.1319 66.3511 28.1865L66.6209 36.1501C66.6278 36.4149 66.8042 36.641 67.0536 36.721L69.2391 37.2665C70.2173 37.5101 71.1663 36.7719 71.1663 35.7683V25.3319C71.1663 24.4447 70.5627 23.6738 69.7009 23.4592L63.4827 21.9101C63.3605 21.8797 63.2387 21.8643 63.1191 21.8632L63.1172 21.8555Z" fill="white"/>
</g>
<path d="M93.348 41H89.484V23.144H94.668C98.028 23.144 99.732 24.752 99.732 27.704V29.168C99.732 31.064 98.94 32.432 97.428 32.888V32.912C98.916 33.248 99.492 34.736 99.564 36.608L99.66 38.84C99.708 39.704 99.804 40.52 100.02 41H96.156C96.036 40.496 95.916 39.512 95.844 38.216L95.748 36.152C95.676 35.096 95.196 34.592 94.164 34.592H93.348V41ZM93.348 26.384V31.64H94.332C95.22 31.64 95.868 31.208 95.868 29.696V28.16C95.868 26.912 95.388 26.384 94.452 26.384H93.348ZM106.243 41.336C102.643 41.336 101.011 39.536 101.011 35.432V23.144H104.875V35.84C104.875 37.232 105.355 37.928 106.243 37.928C107.107 37.928 107.587 37.232 107.587 35.84V23.144H111.451V35.384C111.451 39.512 109.819 41.336 106.243 41.336ZM117.954 41.336C114.594 41.336 112.698 39.704 112.698 36.224V35.168H116.49V36.224C116.49 37.16 116.778 38.024 117.954 38.024C118.794 38.024 119.202 37.496 119.202 36.728V35.576C119.202 34.28 118.53 34.04 116.49 33.104C113.922 31.88 112.866 30.824 112.866 28.304V27.272C112.866 24.392 114.93 22.832 117.906 22.832C121.194 22.832 122.97 24.704 122.946 27.896V28.856H119.298V27.896C119.298 26.816 118.914 26.144 117.906 26.144C117.09 26.144 116.73 26.624 116.73 27.272V28.304C116.754 29.336 117.498 29.696 118.602 30.176C121.866 31.544 123.114 32.864 123.114 35.624V36.776C123.114 39.68 121.002 41.336 117.954 41.336ZM130.309 41H126.445V26.672H123.613V23.144H133.165V26.672H130.309V41ZM139.171 41.336C135.667 41.336 133.915 39.272 133.915 35.24V28.928C133.915 24.896 135.667 22.832 139.171 22.832C142.675 22.832 144.427 24.896 144.427 28.928V35.24C144.427 39.272 142.675 41.336 139.171 41.336ZM139.171 37.928C140.083 37.928 140.563 37.304 140.563 35.792V28.376C140.563 26.864 140.083 26.24 139.171 26.24C138.283 26.24 137.779 26.864 137.779 28.376V35.792C137.779 37.304 138.283 37.928 139.171 37.928ZM149.996 41H146.132V23.144H151.316C154.676 23.144 156.38 24.752 156.38 27.704V29.168C156.38 31.064 155.588 32.432 154.076 32.888V32.912C155.564 33.248 156.14 34.736 156.212 36.608L156.308 38.84C156.356 39.704 156.452 40.52 156.668 41H152.804C152.684 40.496 152.564 39.512 152.492 38.216L152.396 36.152C152.324 35.096 151.844 34.592 150.812 34.592H149.996V41ZM149.996 26.384V31.64H150.98C151.868 31.64 152.516 31.208 152.516 29.696V28.16C152.516 26.912 152.036 26.384 151.1 26.384H149.996ZM166.419 41H157.851V23.144H166.275V26.552H161.715V30.296H165.747V33.56H161.715V37.544H166.419V41Z" fill="#0077FF"/>
<defs>
<clipPath id="clip0_1647_29734">
<rect width="32" height="32" fill="white" transform="translate(44.5 16)"/>
</clipPath>
</defs>
</svg>
