<svg width="212" height="64" viewBox="0 0 212 64" fill="none" xmlns="http://www.w3.org/2000/svg">
<rect x="1" y="1" width="210" height="62" rx="9" stroke="#7C60F5" stroke-width="2"/>
<path d="M33.908 44.8809L46.1736 37.9577L43.54 35.0409L33.908 44.8809ZM29.428 19.3977C29.2856 19.6505 29.1992 19.9417 29.1992 20.2649V44.4649C29.1992 44.9129 29.3672 45.2969 29.62 45.6009L41.8232 33.1369L29.428 19.3977ZM53.9672 31.1721L49.6904 28.7577L45.3352 33.2073L48.4568 36.6681L53.9672 33.5593C54.195 33.4463 54.3906 33.2776 54.536 33.069C54.6815 32.8604 54.772 32.6185 54.7992 32.3657C54.772 32.1129 54.6815 31.871 54.536 31.6624C54.3906 31.4538 54.195 31.2852 53.9672 31.1721ZM47.3832 27.4553L32.6312 19.1289L43.6168 31.3049L47.3832 27.4553Z" fill="#7C60F5"/>
<path d="M75.976 41.336C72.448 41.336 70.72 39.32 70.72 35.24V28.952C70.72 24.848 72.448 22.832 75.976 22.832C79.672 22.832 81.16 24.92 81.16 28.688V29.744H77.344V28.184C77.344 27.056 77.032 26.24 75.976 26.24C75.16 26.24 74.584 26.864 74.584 28.232V35.912C74.584 37.472 75.136 38.096 76.048 38.096C77.104 38.096 77.656 37.52 77.656 35.984V34.712H76.144V31.688H81.184V35.024C81.184 39.224 79.816 41.336 75.976 41.336ZM87.7651 41.336C84.2611 41.336 82.5091 39.272 82.5091 35.24V28.928C82.5091 24.896 84.2611 22.832 87.7651 22.832C91.2691 22.832 93.0211 24.896 93.0211 28.928V35.24C93.0211 39.272 91.2691 41.336 87.7651 41.336ZM87.7651 37.928C88.6771 37.928 89.1571 37.304 89.1571 35.792V28.376C89.1571 26.864 88.6771 26.24 87.7651 26.24C86.8771 26.24 86.3731 26.864 86.3731 28.376V35.792C86.3731 37.304 86.8771 37.928 87.7651 37.928ZM99.7182 41.336C96.2142 41.336 94.4622 39.272 94.4622 35.24V28.928C94.4622 24.896 96.2142 22.832 99.7182 22.832C103.222 22.832 104.974 24.896 104.974 28.928V35.24C104.974 39.272 103.222 41.336 99.7182 41.336ZM99.7182 37.928C100.63 37.928 101.11 37.304 101.11 35.792V28.376C101.11 26.864 100.63 26.24 99.7182 26.24C98.8302 26.24 98.3262 26.864 98.3262 28.376V35.792C98.3262 37.304 98.8302 37.928 99.7182 37.928ZM111.671 41.336C108.143 41.336 106.415 39.32 106.415 35.24V28.952C106.415 24.848 108.143 22.832 111.671 22.832C115.367 22.832 116.855 24.92 116.855 28.688V29.744H113.039V28.184C113.039 27.056 112.727 26.24 111.671 26.24C110.855 26.24 110.279 26.864 110.279 28.232V35.912C110.279 37.472 110.831 38.096 111.743 38.096C112.799 38.096 113.351 37.52 113.351 35.984V34.712H111.839V31.688H116.879V35.024C116.879 39.224 115.511 41.336 111.671 41.336ZM126.58 41H118.468V23.144H122.332V37.472H126.58V41ZM136.411 41H127.843V23.144H136.267V26.552H131.707V30.296H135.739V33.56H131.707V37.544H136.411V41ZM147.153 41H143.289V23.144H148.353C151.569 23.144 153.537 24.896 153.537 28.616V30.608C153.537 34.472 151.641 36.224 148.713 36.224H147.153V41ZM147.153 26.576V32.792H147.993C149.001 32.792 149.673 32.384 149.673 30.608V28.712C149.673 27.104 149.097 26.576 148.041 26.576H147.153ZM162.885 41H154.773V23.144H158.637V37.472H162.885V41ZM175.428 41H171.468L171.012 38H167.7L167.22 41H163.284L166.764 23.144H171.924L175.428 41ZM169.164 28.688L168.204 34.784H170.508L169.548 28.688L169.38 27.32H169.332L169.164 28.688ZM181.625 41H177.761V36.032L174.065 23.144H178.073L179.561 30.896L179.657 31.712H179.705L179.825 30.896L181.265 23.144H185.297L181.625 36.032V41Z" fill="#7C60F5"/>
</svg>
