<svg width="212" height="64" viewBox="0 0 212 64" fill="none" xmlns="http://www.w3.org/2000/svg">
<rect x="1" y="1" width="210" height="62" rx="9" stroke="#18181B" stroke-width="2"/>
<path d="M60.0454 31.9474C60.06 30.7976 60.3603 29.6702 60.9185 28.6701C61.4766 27.6701 62.2745 26.8298 63.2378 26.2276C62.6258 25.3388 61.8185 24.6074 60.8799 24.0914C59.9414 23.5754 58.8975 23.2891 57.8311 23.2552C55.5563 23.0124 53.3509 24.6394 52.1917 24.6394C51.0101 24.6394 49.2253 23.2793 47.3034 23.3195C46.0603 23.3603 44.8487 23.7279 43.7869 24.3865C42.725 25.0451 41.8489 25.9721 41.2441 27.0774C38.6242 31.6901 40.5784 38.4693 43.0881 42.1979C44.3437 44.0237 45.8112 46.0631 47.7314 45.9908C49.6104 45.9115 50.3122 44.7723 52.5803 44.7723C54.8273 44.7723 55.4857 45.9908 57.4449 45.9448C59.4611 45.9115 60.7315 44.1109 61.9431 42.2678C62.8452 40.9669 63.5394 39.5291 64 38.0076C62.8286 37.5038 61.829 36.6605 61.1257 35.5828C60.4225 34.5051 60.0468 33.2408 60.0454 31.9474Z" fill="#18181B"/>
<path d="M56.3453 20.8086C57.4446 19.4666 57.9862 17.7416 57.8551 16C56.1755 16.1794 54.6241 16.9957 53.5099 18.2863C52.9651 18.9167 52.5479 19.6502 52.282 20.4448C52.0162 21.2393 51.9069 22.0794 51.9605 22.9169C52.8006 22.9257 53.6317 22.7405 54.3912 22.3753C55.1507 22.0101 55.8188 21.4745 56.3453 20.8086Z" fill="#18181B"/>
<path d="M92.264 41H88.304L87.848 38H84.536L84.056 41H80.12L83.6 23.144H88.76L92.264 41ZM86 28.688L85.04 34.784H87.344L86.384 28.688L86.216 27.32H86.168L86 28.688ZM97.223 41H93.359V23.144H98.423C101.639 23.144 103.607 24.896 103.607 28.616V30.608C103.607 34.472 101.711 36.224 98.783 36.224H97.223V41ZM97.223 26.576V32.792H98.063C99.071 32.792 99.743 32.384 99.743 30.608V28.712C99.743 27.104 99.167 26.576 98.111 26.576H97.223ZM108.707 41H104.843V23.144H109.907C113.123 23.144 115.091 24.896 115.091 28.616V30.608C115.091 34.472 113.195 36.224 110.267 36.224H108.707V41ZM108.707 26.576V32.792H109.547C110.555 32.792 111.227 32.384 111.227 30.608V28.712C111.227 27.104 110.651 26.576 109.595 26.576H108.707ZM126.47 41.336C123.11 41.336 121.214 39.704 121.214 36.224V35.168H125.006V36.224C125.006 37.16 125.294 38.024 126.47 38.024C127.31 38.024 127.718 37.496 127.718 36.728V35.576C127.718 34.28 127.046 34.04 125.006 33.104C122.438 31.88 121.382 30.824 121.382 28.304V27.272C121.382 24.392 123.446 22.832 126.422 22.832C129.71 22.832 131.486 24.704 131.462 27.896V28.856H127.814V27.896C127.814 26.816 127.43 26.144 126.422 26.144C125.606 26.144 125.246 26.624 125.246 27.272V28.304C125.27 29.336 126.014 29.696 127.118 30.176C130.382 31.544 131.63 32.864 131.63 35.624V36.776C131.63 39.68 129.518 41.336 126.47 41.336ZM138.825 41H134.961V26.672H132.129V23.144H141.681V26.672H138.825V41ZM147.687 41.336C144.183 41.336 142.431 39.272 142.431 35.24V28.928C142.431 24.896 144.183 22.832 147.687 22.832C151.191 22.832 152.943 24.896 152.943 28.928V35.24C152.943 39.272 151.191 41.336 147.687 41.336ZM147.687 37.928C148.599 37.928 149.079 37.304 149.079 35.792V28.376C149.079 26.864 148.599 26.24 147.687 26.24C146.799 26.24 146.295 26.864 146.295 28.376V35.792C146.295 37.304 146.799 37.928 147.687 37.928ZM158.512 41H154.648V23.144H159.832C163.192 23.144 164.896 24.752 164.896 27.704V29.168C164.896 31.064 164.104 32.432 162.592 32.888V32.912C164.08 33.248 164.656 34.736 164.728 36.608L164.824 38.84C164.872 39.704 164.968 40.52 165.184 41H161.32C161.2 40.496 161.08 39.512 161.008 38.216L160.912 36.152C160.84 35.096 160.36 34.592 159.328 34.592H158.512V41ZM158.512 26.384V31.64H159.496C160.384 31.64 161.032 31.208 161.032 29.696V28.16C161.032 26.912 160.552 26.384 159.616 26.384H158.512ZM174.935 41H166.367V23.144H174.791V26.552H170.231V30.296H174.263V33.56H170.231V37.544H174.935V41Z" fill="#18181B"/>
</svg>
