<svg width="32" height="32" viewBox="0 0 32 32" fill="none" xmlns="http://www.w3.org/2000/svg">
<path d="M24.0454 15.9474C24.06 14.7976 24.3603 13.6702 24.9185 12.6701C25.4766 11.6701 26.2745 10.8298 27.2378 10.2276C26.6258 9.3388 25.8185 8.60738 24.8799 8.0914C23.9414 7.57543 22.8975 7.2891 21.8311 7.25517C19.5563 7.01236 17.3509 8.63942 16.1917 8.63942C15.0101 8.63942 13.2253 7.27928 11.3034 7.31949C10.0603 7.36034 8.84874 7.72795 7.78685 8.38652C6.72496 9.04508 5.84893 9.97214 5.24411 11.0774C2.62419 15.6901 4.57842 22.4693 7.08808 26.1979C8.34372 28.0237 9.81121 30.0631 11.7314 29.9908C13.6104 29.9115 14.3122 28.7723 16.5803 28.7723C18.8273 28.7723 19.4857 29.9908 21.4449 29.9448C23.4611 29.9115 24.7315 28.1109 25.9431 26.2678C26.8452 24.9669 27.5394 23.5291 28 22.0076C26.8286 21.5038 25.829 20.6605 25.1257 19.5828C24.4225 18.5051 24.0468 17.2408 24.0454 15.9474Z" fill="#18181B"/>
<path d="M20.3453 4.80863C21.4446 3.46658 21.9862 1.74159 21.8551 0C20.1755 0.17939 18.6241 0.995692 17.5099 2.28626C16.9651 2.91673 16.5479 3.65021 16.282 4.44476C16.0162 5.23931 15.9069 6.07935 15.9605 6.91687C16.8006 6.92566 17.6317 6.7405 18.3912 6.37532C19.1507 6.01014 19.8188 5.47446 20.3453 4.80863Z" fill="#18181B"/>
</svg>
