<svg width="32" height="32" viewBox="0 0 32 32" fill="none" xmlns="http://www.w3.org/2000/svg">
<g clip-path="url(#clip0_2089_32867)">
<path d="M16.627 -0.0371094C23.8632 -0.0371097 27.4994 -0.0369078 29.7539 2.21387C32.0048 4.46475 32.0049 8.06826 32.0049 15.3408V16.6211C32.0049 23.8574 32.0048 27.4935 29.7539 29.748C27.503 32.0026 23.8997 31.999 16.627 31.999H15.3467C8.11048 31.999 4.47425 31.9989 2.21973 29.748C-0.0310663 27.4971 -0.03125 23.8937 -0.03125 16.6211V15.3408C-0.0312503 8.10462 -0.0311571 4.46839 2.21973 2.21387C4.47061 -0.0370157 8.07412 -0.0371094 15.3467 -0.0371094H16.627ZM18.6191 5.85547C17.7828 5.84727 17.0557 6.52138 17.0557 7.40137V9.28125L13.1279 8.30273C13.0059 8.27232 12.8842 8.25695 12.7646 8.25586C11.9283 8.24764 11.2012 8.92176 11.2012 9.80176V11.6738L7.31055 10.7031C6.33243 10.4595 5.38293 11.1976 5.38281 12.2012V22.6377C5.38281 23.525 5.98681 24.2962 6.84863 24.5107L13.0664 26.0596C14.0445 26.3032 14.994 25.5651 14.9941 24.5615V14.125C14.9941 13.4888 14.6823 12.9143 14.1904 12.5615C14.1826 12.5359 14.1843 12.5076 14.2002 12.4844C14.2275 12.4447 14.2764 12.4256 14.3223 12.4395C15.1404 12.6868 15.919 13.5227 15.999 14.5771L16.2686 22.541C16.2755 22.8079 16.4538 23.0355 16.7051 23.1191L18.8867 23.6611C19.8647 23.9046 20.8133 23.1665 20.8135 22.1631C20.8392 18.7194 20.8321 15.2172 20.833 11.7627C20.833 11.2937 20.6743 10.9337 20.4961 10.6719C20.4672 10.6283 20.4366 10.5854 20.4043 10.5439C20.3654 10.4945 20.3229 10.4471 20.2793 10.4014C20.2143 10.3331 20.1451 10.268 20.0703 10.21L20.0684 10.209C20.0375 10.178 20.0293 10.1291 20.0547 10.0928C20.082 10.0533 20.1311 10.0341 20.1768 10.0479C20.9949 10.2951 21.7772 11.132 21.8535 12.1865L22.123 20.1504C22.1301 20.415 22.3063 20.6407 22.5557 20.7207L24.7412 21.2666C25.7192 21.5101 26.6678 20.772 26.668 19.7686V9.33203C26.668 8.44483 26.0648 7.6736 25.2031 7.45898L18.9844 5.91016C18.8623 5.87973 18.7406 5.86438 18.6211 5.86328L18.6191 5.85547Z" fill="white"/>
</g>
<defs>
<clipPath id="clip0_2089_32867">
<rect width="32" height="32" fill="white"/>
</clipPath>
</defs>
</svg>
