<svg width="32" height="32" viewBox="0 0 32 32" fill="none" xmlns="http://www.w3.org/2000/svg">
<path d="M7.90802 28.8809L20.1736 21.9577L17.54 19.0409L7.90802 28.8809ZM3.42802 3.39771C3.28562 3.65051 3.19922 3.94171 3.19922 4.26491V28.4649C3.19922 28.9129 3.36722 29.2969 3.62002 29.6009L15.8232 17.1369L3.42802 3.39771ZM27.9672 15.1721L23.6904 12.7577L19.3352 17.2073L22.4568 20.6681L27.9672 17.5593C28.195 17.4463 28.3906 17.2776 28.536 17.069C28.6815 16.8604 28.772 16.6185 28.7992 16.3657C28.772 16.1129 28.6815 15.871 28.536 15.6624C28.3906 15.4538 28.195 15.2852 27.9672 15.1721ZM21.3832 11.4553L6.63122 3.12891L17.6168 15.3049L21.3832 11.4553Z" fill="#7C60F5"/>
</svg>
