<svg width="32" height="32" viewBox="0 0 32 32" fill="none" xmlns="http://www.w3.org/2000/svg">
<g clip-path="url(#clip0_1647_29913)">
<path fill-rule="evenodd" clip-rule="evenodd" d="M15.345 32.0012C8.10862 32.0012 4.47225 32.0012 2.21771 29.7503C-0.0332031 27.4994 -0.0332031 23.8958 -0.0332031 16.623L-0.0332031 15.343C-0.0332034 8.10666 -0.0332036 4.4703 2.21771 2.21575C4.46862 -0.0351561 8.07225 -0.0351562 15.345 -0.0351562L16.625 -0.0351562C23.8614 -0.0351566 27.4977 -0.0351568 29.7523 2.21575C32.0032 4.46666 32.0032 8.0703 32.0032 15.343V16.623C32.0032 23.8594 32.0032 27.4958 29.7523 29.7503C27.5014 32.0048 23.8977 32.0012 16.625 32.0012H15.345Z" fill="#0077FF"/>
<path d="M18.6172 5.85554C17.7809 5.84732 17.0536 6.521 17.0536 7.401V9.281L13.1263 8.30282C13.0041 8.27234 12.8823 8.257 12.7627 8.25591C11.9263 8.24769 11.199 8.92136 11.199 9.80136V11.6741L7.30813 10.7032C6.32995 10.4595 5.38086 11.1977 5.38086 12.2014V22.6377C5.38086 23.525 5.9845 24.2959 6.84631 24.5105L13.0645 26.0595C14.0427 26.3032 14.9918 25.565 14.9918 24.5614V14.125C14.9918 13.4886 14.6801 12.9141 14.1881 12.5614C14.1803 12.5357 14.1821 12.5072 14.1981 12.4839C14.2253 12.4443 14.2744 12.4254 14.3202 12.4392C15.1384 12.6865 15.9166 13.5228 15.9966 14.5774L16.2664 22.541C16.2734 22.8079 16.4515 23.0355 16.7028 23.1192L18.8846 23.661C19.8628 23.9046 20.8119 23.1665 20.8119 22.1628C20.8376 18.7192 20.8302 15.2174 20.8311 11.7628C20.8311 11.2937 20.6725 10.9337 20.4943 10.6719C20.4655 10.6283 20.4351 10.5854 20.4027 10.5439C20.3638 10.4945 20.3213 10.4475 20.2776 10.4017C20.2125 10.3334 20.1431 10.2683 20.0682 10.2101L20.0667 10.2087C20.0359 10.1777 20.0271 10.1294 20.0525 10.093C20.0798 10.0534 20.1289 10.0345 20.1747 10.0483C20.9929 10.2956 21.7747 11.1319 21.8511 12.1865L22.1209 20.1501C22.1278 20.4149 22.3042 20.641 22.5536 20.721L24.7391 21.2665C25.7173 21.5101 26.6663 20.7719 26.6663 19.7683V9.33194C26.6663 8.44467 26.0627 7.67376 25.2009 7.45922L18.9827 5.91012C18.8605 5.87965 18.7387 5.86431 18.6191 5.86322L18.6172 5.85554Z" fill="white"/>
</g>
<defs>
<clipPath id="clip0_1647_29913">
<rect width="32" height="32" fill="white"/>
</clipPath>
</defs>
</svg>
