<svg width="28" height="28" viewBox="0 0 28 28" fill="none" xmlns="http://www.w3.org/2000/svg">
<mask id="mask0_1594_34702" style="mask-type:alpha" maskUnits="userSpaceOnUse" x="0" y="0" width="28" height="28">
<ellipse cx="13.998" cy="13.998" rx="13.998" ry="13.998" transform="matrix(1 0.000143227 0.000143207 1 0 0)" fill="#C4C4C4"/>
</mask>
<g mask="url(#mask0_1594_34702)">
<ellipse cx="13.998" cy="13.998" rx="13.998" ry="13.998" transform="matrix(1 0.000143227 0.000143207 1 0 0)" fill="#7C60F5"/>
<path d="M15.8516 0.466797C17.0799 0.364033 18.8503 1.49933 19.7861 2.43164C20.4463 3.08936 20.823 3.89254 20.915 4.8418C21.007 5.77947 20.7946 6.60872 20.2783 7.3291L20.3467 7.39844C21.2936 6.64951 22.3037 6.29489 23.377 6.33496C24.4445 6.36942 25.3891 6.79557 26.21 7.61328C27.3064 8.70564 27.792 9.9382 27.666 11.3105C27.5342 12.6773 26.8083 14.0188 25.4883 15.334L20.5039 20.2998L19.0908 18.8926L19.0791 18.9033L14.7393 14.5801L2.44043 26.833L0.236328 24.6367L12.5342 12.3838L8.00586 7.84082L7.38867 7.2002L12.3477 2.25977C13.4495 1.16201 14.6176 0.563927 15.8516 0.466797ZM24.1182 9.45801C22.7633 8.10821 21.0658 8.21852 19.2178 10.0596L16.6758 12.6191L20.8564 16.8086L23.5166 14.1582C24.3831 13.2949 24.8675 12.4627 24.9707 11.6621C25.0739 10.8616 24.7897 10.1271 24.1182 9.45801ZM15.4521 3.15332C14.7635 3.22189 14.0692 3.60534 13.3691 4.30273L10.7881 6.73145L14.5361 10.4258L17.0234 7.88379C17.8555 7.05477 18.0425 6.74146 18.1572 5.96387C18.2719 5.18618 17.9609 4.52115 17.3467 3.90918C16.7726 3.33721 16.141 3.08479 15.4521 3.15332ZM8.00586 7.84082L8.19629 8.03809L7.49609 7.3291L8.00586 7.84082Z" fill="white"/>
</g>
</svg>
