<svg width="200" height="64" viewBox="0 0 200 64" fill="none" xmlns="http://www.w3.org/2000/svg">
<rect x="1" y="1" width="198" height="62" rx="9" stroke="#18181B" stroke-width="2"/>
<path d="M54.0454 31.9474C54.06 30.7976 54.3603 29.6702 54.9185 28.6701C55.4766 27.6701 56.2745 26.8298 57.2378 26.2276C56.6258 25.3388 55.8185 24.6074 54.8799 24.0914C53.9414 23.5754 52.8975 23.2891 51.8311 23.2552C49.5563 23.0124 47.3509 24.6394 46.1917 24.6394C45.0101 24.6394 43.2253 23.2793 41.3034 23.3195C40.0603 23.3603 38.8487 23.7279 37.7869 24.3865C36.725 25.0451 35.8489 25.9721 35.2441 27.0774C32.6242 31.6901 34.5784 38.4693 37.0881 42.1979C38.3437 44.0237 39.8112 46.0631 41.7314 45.9908C43.6104 45.9115 44.3122 44.7723 46.5803 44.7723C48.8273 44.7723 49.4857 45.9908 51.4449 45.9448C53.4611 45.9115 54.7315 44.1109 55.9431 42.2678C56.8452 40.9669 57.5394 39.5291 58 38.0076C56.8286 37.5038 55.829 36.6605 55.1257 35.5828C54.4225 34.5051 54.0468 33.2408 54.0454 31.9474Z" fill="#18181B"/>
<path d="M50.3453 20.8086C51.4446 19.4666 51.9862 17.7416 51.8551 16C50.1755 16.1794 48.6241 16.9957 47.5099 18.2863C46.9651 18.9167 46.5479 19.6502 46.282 20.4448C46.0162 21.2393 45.9069 22.0794 45.9605 22.9169C46.8006 22.9257 47.6317 22.7405 48.3912 22.3753C49.1507 22.0101 49.8188 21.4745 50.3453 20.8086Z" fill="#18181B"/>
<path d="M86.264 41H82.304L81.848 38H78.536L78.056 41H74.12L77.6 23.144H82.76L86.264 41ZM80 28.688L79.04 34.784H81.344L80.384 28.688L80.216 27.32H80.168L80 28.688ZM91.223 41H87.359V23.144H92.423C95.639 23.144 97.607 24.896 97.607 28.616V30.608C97.607 34.472 95.711 36.224 92.783 36.224H91.223V41ZM91.223 26.576V32.792H92.063C93.071 32.792 93.743 32.384 93.743 30.608V28.712C93.743 27.104 93.167 26.576 92.111 26.576H91.223ZM102.707 41H98.8434V23.144H103.907C107.123 23.144 109.091 24.896 109.091 28.616V30.608C109.091 34.472 107.195 36.224 104.267 36.224H102.707V41ZM102.707 26.576V32.792H103.547C104.555 32.792 105.227 32.384 105.227 30.608V28.712C105.227 27.104 104.651 26.576 103.595 26.576H102.707ZM120.47 41.336C117.11 41.336 115.214 39.704 115.214 36.224V35.168H119.006V36.224C119.006 37.16 119.294 38.024 120.47 38.024C121.31 38.024 121.718 37.496 121.718 36.728V35.576C121.718 34.28 121.046 34.04 119.006 33.104C116.438 31.88 115.382 30.824 115.382 28.304V27.272C115.382 24.392 117.446 22.832 120.422 22.832C123.71 22.832 125.486 24.704 125.462 27.896V28.856H121.814V27.896C121.814 26.816 121.43 26.144 120.422 26.144C119.606 26.144 119.246 26.624 119.246 27.272V28.304C119.27 29.336 120.014 29.696 121.118 30.176C124.382 31.544 125.63 32.864 125.63 35.624V36.776C125.63 39.68 123.518 41.336 120.47 41.336ZM132.825 41H128.961V26.672H126.129V23.144H135.681V26.672H132.825V41ZM141.687 41.336C138.183 41.336 136.431 39.272 136.431 35.24V28.928C136.431 24.896 138.183 22.832 141.687 22.832C145.191 22.832 146.943 24.896 146.943 28.928V35.24C146.943 39.272 145.191 41.336 141.687 41.336ZM141.687 37.928C142.599 37.928 143.079 37.304 143.079 35.792V28.376C143.079 26.864 142.599 26.24 141.687 26.24C140.799 26.24 140.295 26.864 140.295 28.376V35.792C140.295 37.304 140.799 37.928 141.687 37.928ZM152.512 41H148.648V23.144H153.832C157.192 23.144 158.896 24.752 158.896 27.704V29.168C158.896 31.064 158.104 32.432 156.592 32.888V32.912C158.08 33.248 158.656 34.736 158.728 36.608L158.824 38.84C158.872 39.704 158.968 40.52 159.184 41H155.32C155.2 40.496 155.08 39.512 155.008 38.216L154.912 36.152C154.84 35.096 154.36 34.592 153.328 34.592H152.512V41ZM152.512 26.384V31.64H153.496C154.384 31.64 155.032 31.208 155.032 29.696V28.16C155.032 26.912 154.552 26.384 153.616 26.384H152.512ZM168.935 41H160.367V23.144H168.791V26.552H164.231V30.296H168.263V33.56H164.231V37.544H168.935V41Z" fill="#18181B"/>
</svg>
