<svg width="200" height="64" viewBox="0 0 200 64" fill="none" xmlns="http://www.w3.org/2000/svg">
<rect x="1" y="1" width="198" height="62" rx="9" stroke="#7C60F5" stroke-width="2"/>
<path d="M27.908 44.8809L40.1736 37.9577L37.54 35.0409L27.908 44.8809ZM23.428 19.3977C23.2856 19.6505 23.1992 19.9417 23.1992 20.2649V44.4649C23.1992 44.9129 23.3672 45.2969 23.62 45.6009L35.8232 33.1369L23.428 19.3977ZM47.9672 31.1721L43.6904 28.7577L39.3352 33.2073L42.4568 36.6681L47.9672 33.5593C48.195 33.4463 48.3906 33.2776 48.536 33.069C48.6815 32.8604 48.772 32.6185 48.7992 32.3657C48.772 32.1129 48.6815 31.871 48.536 31.6624C48.3906 31.4538 48.195 31.2852 47.9672 31.1721ZM41.3832 27.4553L26.6312 19.1289L37.6168 31.3049L41.3832 27.4553Z" fill="#7C60F5"/>
<path d="M69.976 41.336C66.448 41.336 64.72 39.32 64.72 35.24V28.952C64.72 24.848 66.448 22.832 69.976 22.832C73.672 22.832 75.16 24.92 75.16 28.688V29.744H71.344V28.184C71.344 27.056 71.032 26.24 69.976 26.24C69.16 26.24 68.584 26.864 68.584 28.232V35.912C68.584 37.472 69.136 38.096 70.048 38.096C71.104 38.096 71.656 37.52 71.656 35.984V34.712H70.144V31.688H75.184V35.024C75.184 39.224 73.816 41.336 69.976 41.336ZM81.7651 41.336C78.2611 41.336 76.5091 39.272 76.5091 35.24V28.928C76.5091 24.896 78.2611 22.832 81.7651 22.832C85.2691 22.832 87.0211 24.896 87.0211 28.928V35.24C87.0211 39.272 85.2691 41.336 81.7651 41.336ZM81.7651 37.928C82.6771 37.928 83.1571 37.304 83.1571 35.792V28.376C83.1571 26.864 82.6771 26.24 81.7651 26.24C80.8771 26.24 80.3731 26.864 80.3731 28.376V35.792C80.3731 37.304 80.8771 37.928 81.7651 37.928ZM93.7182 41.336C90.2142 41.336 88.4622 39.272 88.4622 35.24V28.928C88.4622 24.896 90.2142 22.832 93.7182 22.832C97.2222 22.832 98.9742 24.896 98.9742 28.928V35.24C98.9742 39.272 97.2222 41.336 93.7182 41.336ZM93.7182 37.928C94.6302 37.928 95.1102 37.304 95.1102 35.792V28.376C95.1102 26.864 94.6302 26.24 93.7182 26.24C92.8302 26.24 92.3262 26.864 92.3262 28.376V35.792C92.3262 37.304 92.8302 37.928 93.7182 37.928ZM105.671 41.336C102.143 41.336 100.415 39.32 100.415 35.24V28.952C100.415 24.848 102.143 22.832 105.671 22.832C109.367 22.832 110.855 24.92 110.855 28.688V29.744H107.039V28.184C107.039 27.056 106.727 26.24 105.671 26.24C104.855 26.24 104.279 26.864 104.279 28.232V35.912C104.279 37.472 104.831 38.096 105.743 38.096C106.799 38.096 107.351 37.52 107.351 35.984V34.712H105.839V31.688H110.879V35.024C110.879 39.224 109.511 41.336 105.671 41.336ZM120.58 41H112.468V23.144H116.332V37.472H120.58V41ZM130.411 41H121.843V23.144H130.267V26.552H125.707V30.296H129.739V33.56H125.707V37.544H130.411V41ZM141.153 41H137.289V23.144H142.353C145.569 23.144 147.537 24.896 147.537 28.616V30.608C147.537 34.472 145.641 36.224 142.713 36.224H141.153V41ZM141.153 26.576V32.792H141.993C143.001 32.792 143.673 32.384 143.673 30.608V28.712C143.673 27.104 143.097 26.576 142.041 26.576H141.153ZM156.885 41H148.773V23.144H152.637V37.472H156.885V41ZM169.428 41H165.468L165.012 38H161.7L161.22 41H157.284L160.764 23.144H165.924L169.428 41ZM163.164 28.688L162.204 34.784H164.508L163.548 28.688L163.38 27.32H163.332L163.164 28.688ZM175.625 41H171.761V36.032L168.065 23.144H172.073L173.561 30.896L173.657 31.712H173.705L173.825 30.896L175.265 23.144H179.297L175.625 36.032V41Z" fill="#7C60F5"/>
</svg>
