<svg width="200" height="64" viewBox="0 0 200 64" fill="none" xmlns="http://www.w3.org/2000/svg">
<rect x="1" y="1" width="198" height="62" rx="9" stroke="#0077FF" stroke-width="2"/>
<g clip-path="url(#clip0_1654_33396)">
<path fill-rule="evenodd" clip-rule="evenodd" d="M53.845 48.0012C46.6086 48.0012 42.9723 48.0012 40.7177 45.7503C38.4668 43.4994 38.4668 39.8958 38.4668 32.623L38.4668 31.343C38.4668 24.1067 38.4668 20.4703 40.7177 18.2158C42.9686 15.9648 46.5723 15.9648 53.845 15.9648L55.125 15.9648C62.3614 15.9648 65.9977 15.9648 68.2523 18.2158C70.5032 20.4667 70.5032 24.0703 70.5032 31.343V32.623C70.5032 39.8594 70.5032 43.4958 68.2523 45.7503C66.0014 48.0048 62.3977 48.0012 55.125 48.0012H53.845Z" fill="#0077FF"/>
<path d="M57.1172 21.8555C56.2809 21.8473 55.5536 22.521 55.5536 23.401V25.281L51.6263 24.3028C51.5041 24.2723 51.3823 24.257 51.2627 24.2559C50.4263 24.2477 49.699 24.9214 49.699 25.8014V27.6741L45.8081 26.7032C44.83 26.4595 43.8809 27.1977 43.8809 28.2014V38.6377C43.8809 39.525 44.4845 40.2959 45.3463 40.5105L51.5645 42.0595C52.5427 42.3032 53.4918 41.565 53.4918 40.5614V30.125C53.4918 29.4886 53.1801 28.9141 52.6881 28.5614C52.6803 28.5357 52.6821 28.5072 52.6981 28.4839C52.7253 28.4443 52.7744 28.4254 52.8202 28.4392C53.6384 28.6865 54.4166 29.5228 54.4966 30.5774L54.7664 38.541C54.7734 38.8079 54.9515 39.0355 55.2028 39.1192L57.3846 39.661C58.3628 39.9046 59.3119 39.1665 59.3119 38.1628C59.3376 34.7192 59.3302 31.2174 59.3311 27.7628C59.3311 27.2937 59.1725 26.9337 58.9943 26.6719C58.9655 26.6283 58.9351 26.5854 58.9027 26.5439C58.8638 26.4945 58.8213 26.4475 58.7776 26.4017C58.7125 26.3334 58.6431 26.2683 58.5682 26.2101L58.5667 26.2087C58.5359 26.1777 58.5271 26.1294 58.5525 26.093C58.5798 26.0534 58.6289 26.0345 58.6747 26.0483C59.4929 26.2956 60.2747 27.1319 60.3511 28.1865L60.6209 36.1501C60.6278 36.4149 60.8042 36.641 61.0536 36.721L63.2391 37.2665C64.2173 37.5101 65.1663 36.7719 65.1663 35.7683V25.3319C65.1663 24.4447 64.5627 23.6738 63.7009 23.4592L57.4827 21.9101C57.3605 21.8797 57.2387 21.8643 57.1191 21.8632L57.1172 21.8555Z" fill="white"/>
</g>
<path d="M87.348 41H83.484V23.144H88.668C92.028 23.144 93.732 24.752 93.732 27.704V29.168C93.732 31.064 92.94 32.432 91.428 32.888V32.912C92.916 33.248 93.492 34.736 93.564 36.608L93.66 38.84C93.708 39.704 93.804 40.52 94.02 41H90.156C90.036 40.496 89.916 39.512 89.844 38.216L89.748 36.152C89.676 35.096 89.196 34.592 88.164 34.592H87.348V41ZM87.348 26.384V31.64H88.332C89.22 31.64 89.868 31.208 89.868 29.696V28.16C89.868 26.912 89.388 26.384 88.452 26.384H87.348ZM100.243 41.336C96.6428 41.336 95.0107 39.536 95.0107 35.432V23.144H98.8748V35.84C98.8748 37.232 99.3548 37.928 100.243 37.928C101.107 37.928 101.587 37.232 101.587 35.84V23.144H105.451V35.384C105.451 39.512 103.819 41.336 100.243 41.336ZM111.954 41.336C108.594 41.336 106.698 39.704 106.698 36.224V35.168H110.49V36.224C110.49 37.16 110.778 38.024 111.954 38.024C112.794 38.024 113.202 37.496 113.202 36.728V35.576C113.202 34.28 112.53 34.04 110.49 33.104C107.922 31.88 106.866 30.824 106.866 28.304V27.272C106.866 24.392 108.93 22.832 111.906 22.832C115.194 22.832 116.97 24.704 116.946 27.896V28.856H113.298V27.896C113.298 26.816 112.914 26.144 111.906 26.144C111.09 26.144 110.73 26.624 110.73 27.272V28.304C110.754 29.336 111.498 29.696 112.602 30.176C115.866 31.544 117.114 32.864 117.114 35.624V36.776C117.114 39.68 115.002 41.336 111.954 41.336ZM124.309 41H120.445V26.672H117.613V23.144H127.165V26.672H124.309V41ZM133.171 41.336C129.667 41.336 127.915 39.272 127.915 35.24V28.928C127.915 24.896 129.667 22.832 133.171 22.832C136.675 22.832 138.427 24.896 138.427 28.928V35.24C138.427 39.272 136.675 41.336 133.171 41.336ZM133.171 37.928C134.083 37.928 134.563 37.304 134.563 35.792V28.376C134.563 26.864 134.083 26.24 133.171 26.24C132.283 26.24 131.779 26.864 131.779 28.376V35.792C131.779 37.304 132.283 37.928 133.171 37.928ZM143.996 41H140.132V23.144H145.316C148.676 23.144 150.38 24.752 150.38 27.704V29.168C150.38 31.064 149.588 32.432 148.076 32.888V32.912C149.564 33.248 150.14 34.736 150.212 36.608L150.308 38.84C150.356 39.704 150.452 40.52 150.668 41H146.804C146.684 40.496 146.564 39.512 146.492 38.216L146.396 36.152C146.324 35.096 145.844 34.592 144.812 34.592H143.996V41ZM143.996 26.384V31.64H144.98C145.868 31.64 146.516 31.208 146.516 29.696V28.16C146.516 26.912 146.036 26.384 145.1 26.384H143.996ZM160.419 41H151.851V23.144H160.275V26.552H155.715V30.296H159.747V33.56H155.715V37.544H160.419V41Z" fill="#0077FF"/>
<defs>
<clipPath id="clip0_1654_33396">
<rect width="32" height="32" fill="white" transform="translate(38.5 16)"/>
</clipPath>
</defs>
</svg>
